<?xml version="1.0" encoding="UTF-8" standalone="no"?>
<!-- Created with Inkscape (http://www.inkscape.org/) -->

<svg
   xmlns:dc="http://purl.org/dc/elements/1.1/"
   xmlns:cc="http://creativecommons.org/ns#"
   xmlns:rdf="http://www.w3.org/1999/02/22-rdf-syntax-ns#"
   xmlns:svg="http://www.w3.org/2000/svg"
   xmlns="http://www.w3.org/2000/svg"
   xmlns:xlink="http://www.w3.org/1999/xlink"
   xmlns:sodipodi="http://sodipodi.sourceforge.net/DTD/sodipodi-0.dtd"
   xmlns:inkscape="http://www.inkscape.org/namespaces/inkscape"
   width="512"
   height="256"
   viewBox="0 0 128 0"
   id="svg4886"
   version="1.1"
   inkscape:version="0.91 r13725"
   sodipodi:docname="Logo_simple.svg"
   inkscape:export-filename="/home/philip/Work/Nim/Logo.png"
   inkscape:export-xdpi="90"
   inkscape:export-ydpi="90">
  <defs
     id="defs4888">
    <linearGradient
       inkscape:collect="always"
       xlink:href="#linearGradient5122"
       id="linearGradient13686"
       gradientUnits="userSpaceOnUse"
       gradientTransform="matrix(0.56658293,0,0,1,111.78894,324.86218)"
       x1="265.33334"
       y1="97.777779"
       x2="265.33334"
       y2="64.86187" />
    <linearGradient
       inkscape:collect="always"
       id="linearGradient5122">
      <stop
         style="stop-color:#ffffff;stop-opacity:1;"
         offset="0"
         id="stop5124" />
      <stop
         style="stop-color:#ffffff;stop-opacity:0;"
         offset="1"
         id="stop5126" />
    </linearGradient>
    <clipPath
       clipPathUnits="userSpaceOnUse"
       id="clipPath8885">
      <path
         inkscape:connector-curvature="0"
         d="m 313.68522,443.38203 -6.70605,0 0,-25.21477 c -4e-5,-1.37098 -0.44712,-2.62278 -1.34122,-3.75538 -0.89417,-1.13254 -1.99694,-1.69883 -3.3083,-1.69886 l -8.49434,0 -0.0894,30.66901 -6.70606,0 -0.0894,-30.66901 -11.89207,0 -0.0894,30.66901 -6.88489,0 -0.0894,-36.65975 37.82214,0 c 2.14589,4e-5 3.96398,0.77495 5.45426,2.32476 1.54979,1.49027 2.32471,3.30836 2.32476,5.45426 l 0.0894,28.88073 m -57.93558,-45.24351 -6.9743,0 0,-7.33194 6.88488,0 0.0894,7.33194 m 0,45.24351 -6.88488,0 -0.0894,-37.0174 6.9743,0 0,37.0174 m -18.71353,0 -6.70606,0 0,-25.21477 c -3e-5,-1.37098 -0.44709,-2.62278 -1.3412,-3.75538 -0.89417,-1.13254 -1.99696,-1.69883 -3.30833,-1.69886 l -9.85917,0 -0.0894,30.66901 -6.88488,0 -0.0894,-36.65975 20.41003,0 c 2.14592,4e-5 3.964,0.77495 5.45426,2.32476 1.54981,1.49027 2.32473,3.30836 2.32476,5.45426 l 0.0894,28.88073"
         style="color:#000000;font-style:normal;font-variant:normal;font-weight:bold;font-stretch:normal;font-size:159.73602295px;line-height:125%;font-family:Discognate;-inkscape-font-specification:'Discognate Bold';letter-spacing:0px;word-spacing:0px;display:inline;overflow:visible;visibility:visible;fill:#ffd201;fill-opacity:1;fill-rule:nonzero;stroke:none;stroke-width:3;marker:none;enable-background:accumulate"
         id="path8887"
         sodipodi:nodetypes="cccccccccccccccccccccccccccccccccccccccc" />
    </clipPath>
    <clipPath
       clipPathUnits="userSpaceOnUse"
       id="clipPath5599">
      <path
         inkscape:connector-curvature="0"
         d="m 313.68522,443.38203 -6.70605,0 0,-25.21477 c -4e-5,-1.37098 -0.44712,-2.62278 -1.34122,-3.75538 -0.89417,-1.13254 -1.99694,-1.69883 -3.3083,-1.69886 l -8.49434,0 -0.0894,30.66901 -6.70606,0 -0.0894,-30.66901 -11.89207,0 -0.0894,30.66901 -6.88489,0 -0.0894,-36.65975 37.82214,0 c 2.14589,4e-5 3.96398,0.77495 5.45426,2.32476 1.54979,1.49027 2.32471,3.30836 2.32476,5.45426 l 0.0894,28.88073 m -57.93558,-45.24351 -6.9743,0 0,-7.33194 6.88488,0 0.0894,7.33194 m 0,45.24351 -6.88488,0 -0.0894,-37.0174 6.9743,0 0,37.0174 m -18.71353,0 -6.70606,0 0,-25.21477 c -3e-5,-1.37098 -0.44709,-2.62278 -1.3412,-3.75538 -0.89417,-1.13254 -1.99696,-1.69883 -3.30833,-1.69886 l -9.85917,0 -0.0894,30.66901 -6.88488,0 -0.0894,-36.65975 20.41003,0 c 2.14592,4e-5 3.964,0.77495 5.45426,2.32476 1.54981,1.49027 2.32473,3.30836 2.32476,5.45426 l 0.0894,28.88073"
         style="color:#000000;font-style:normal;font-variant:normal;font-weight:bold;font-stretch:normal;font-size:159.73602295px;line-height:125%;font-family:Discognate;-inkscape-font-specification:'Discognate Bold';letter-spacing:0px;word-spacing:0px;display:inline;overflow:visible;visibility:visible;fill:#ffd201;fill-opacity:1;fill-rule:nonzero;stroke:none;stroke-width:3;marker:none;enable-background:accumulate"
         id="path5601"
         sodipodi:nodetypes="cccccccccccccccccccccccccccccccccccccccc" />
    </clipPath>
    <clipPath
       clipPathUnits="userSpaceOnUse"
       id="clipPath5612">
      <path
         inkscape:connector-curvature="0"
         d="m 313.68522,443.38203 -6.70605,0 0,-25.21477 c -4e-5,-1.37098 -0.44712,-2.62278 -1.34122,-3.75538 -0.89417,-1.13254 -1.99694,-1.69883 -3.3083,-1.69886 l -8.49434,0 -0.0894,30.66901 -6.70606,0 -0.0894,-30.66901 -11.89207,0 -0.0894,30.66901 -6.88489,0 -0.0894,-36.65975 37.82214,0 c 2.14589,4e-5 3.96398,0.77495 5.45426,2.32476 1.54979,1.49027 2.32471,3.30836 2.32476,5.45426 l 0.0894,28.88073 m -57.93558,-45.24351 -6.9743,0 0,-7.33194 6.88488,0 0.0894,7.33194 m 0,45.24351 -6.88488,0 -0.0894,-37.0174 6.9743,0 0,37.0174 m -18.71353,0 -6.70606,0 0,-25.21477 c -3e-5,-1.37098 -0.44709,-2.62278 -1.3412,-3.75538 -0.89417,-1.13254 -1.99696,-1.69883 -3.30833,-1.69886 l -9.85917,0 -0.0894,30.66901 -6.88488,0 -0.0894,-36.65975 20.41003,0 c 2.14592,4e-5 3.964,0.77495 5.45426,2.32476 1.54981,1.49027 2.32473,3.30836 2.32476,5.45426 l 0.0894,28.88073"
         style="color:#000000;font-style:normal;font-variant:normal;font-weight:bold;font-stretch:normal;font-size:159.73602295px;line-height:125%;font-family:Discognate;-inkscape-font-specification:'Discognate Bold';letter-spacing:0px;word-spacing:0px;display:inline;overflow:visible;visibility:visible;fill:#ffd201;fill-opacity:1;fill-rule:nonzero;stroke:none;stroke-width:3;marker:none;enable-background:accumulate"
         id="path5614"
         sodipodi:nodetypes="cccccccccccccccccccccccccccccccccccccccc" />
    </clipPath>
    <radialGradient
       inkscape:collect="always"
       xlink:href="#linearGradient4754-3-7-4"
       id="radialGradient4885-0-8-6"
       cx="554.54865"
       cy="499.36295"
       fx="554.54865"
       fy="499.36295"
       r="52.678249"
       gradientTransform="matrix(1.5386029,-5.7421778e-8,8.2017562e-8,2.7383781,-697.33568,-256.07563)"
       gradientUnits="userSpaceOnUse" />
    <linearGradient
       inkscape:collect="always"
       id="linearGradient4754-3-7-4">
      <stop
         style="stop-color:#ffe652;stop-opacity:1"
         offset="0"
         id="stop4756-8-5-6" />
      <stop
         id="stop4762-2-4-9"
         offset="0.52295953"
         style="stop-color:#ffd201;stop-opacity:1" />
      <stop
         style="stop-color:#8e5b00;stop-opacity:1"
         offset="1"
         id="stop4758-1-3-9" />
    </linearGradient>
  </defs>
  <sodipodi:namedview
     id="base"
     pagecolor="#152534"
     bordercolor="#666666"
     borderopacity="1.0"
     inkscape:pageopacity="0"
     inkscape:pageshadow="2"
     inkscape:zoom="1.5"
     inkscape:cx="288.38302"
     inkscape:cy="125.62167"
     inkscape:document-units="px"
     inkscape:current-layer="layer1"
     showgrid="false"
     units="px"
     inkscape:snap-global="false" />
  <metadata
     id="metadata4891">
    <rdf:RDF>
      <cc:Work
         rdf:about="">
        <dc:format>image/svg+xml</dc:format>
        <dc:type
           rdf:resource="http://purl.org/dc/dcmitype/StillImage" />
        <dc:title></dc:title>
      </cc:Work>
    </rdf:RDF>
  </metadata>
  <g
     inkscape:label="Layer 1"
     inkscape:groupmode="layer"
     id="layer1"
     transform="translate(0,-996.3622)">
    <path
       inkscape:connector-curvature="0"
       d="m 437.08907,1172.3766 -11.84306,7.8855 0,-57.5928 c -7e-5,-2.7027 -0.78963,-5.1704 -2.36863,-7.4032 -1.57913,-2.2326 -3.52665,-3.349 -5.84255,-3.3491 l -15.00123,0 -0.15788,60.4596 -11.84308,0 -0.15788,-60.4596 -21.00172,0 -0.15788,60.4596 -12.1589,0 -0.15788,-72.2695 66.79491,0 c 3.7897,10e-5 7.00049,1.5277 9.63237,4.583 2.73697,2.9378 4.1055,6.5219 4.10558,10.7523 l 0.15789,56.9342 m -102.31578,-89.1911 -12.3168,0 0,-6.5685 12.15888,-7.8854 0.15788,14.4539 m 0,89.1911 -12.15888,0 -0.15788,-72.9745 12.3168,0 0,72.9745 m -33.0486,0 -11.84308,0 0,-49.7073 c -5e-5,-2.7027 -0.78957,-5.1704 -2.36859,-7.4032 -1.57913,-2.2326 -3.52669,-3.349 -5.8426,-3.3491 l -17.41156,0 -0.15788,68.3451 -12.15889,-7.8855 -0.15788,-72.2695 36.04466,0 c 3.78975,10e-5 7.00053,1.5277 9.63237,4.583 2.737,2.9378 4.10553,6.5219 4.10559,10.7523 l 0.15788,56.9342"
       style="color:#000000;font-style:normal;font-variant:normal;font-weight:bold;font-stretch:normal;font-size:159.73602295px;line-height:125%;font-family:Discognate;-inkscape-font-specification:'Discognate Bold';letter-spacing:0px;word-spacing:0px;display:inline;overflow:visible;visibility:visible;fill:#ffd201;fill-opacity:1;fill-rule:nonzero;stroke:none;stroke-width:3;marker:none;enable-background:accumulate"
       id="path4860"
       sodipodi:nodetypes="cccccccccccccccccccccccccccccccccccccccc" />
    <path
       inkscape:connector-curvature="0"
       d="m 970.98946,1142.2395 -47.34611,0 0,12.0367 c 0,2.6406 0.77136,4.9368 2.31413,6.8885 1.54273,1.9517 3.44776,3.0418 5.70817,2.9276 l 39.01525,0 0,8.2843 -41.49993,0 c -3.7026,0 -6.89095,-1.4351 -9.56503,-4.3053 -2.57126,-2.985 -3.85688,-6.544 -3.85688,-10.6771 l 0,-40.642 c 0,-4.1331 1.28562,-7.6347 3.85688,-10.505 2.67408,-2.9849 5.86243,-4.4774 9.56503,-4.4775 l 28.38658,0 c 3.70255,10e-5 6.83947,1.4926 9.41077,4.4775 2.67403,2.8703 4.01109,6.3719 4.01114,10.505 l 0,25.4873 m -8.19284,-7.5954 0,-14.774 c -4e-5,-2.6405 -0.77142,-4.9366 -2.31412,-6.8884 -1.5428,-1.9517 -3.49694,-2.9276 -5.86245,-2.9277 l -22.9544,0 c -2.26273,10e-5 -4.16544,0.976 -5.70817,2.9277 -1.54277,1.9518 -2.73772,4.2906 -2.31413,6.8884 l 0,14.774 39.15327,0 m -67.4591,-68.6945 -0.15435,106.427 -42.11703,0 c -3.7026,0 -6.89095,-1.4351 -9.56503,-4.3053 -2.57127,-2.985 -3.85688,-6.544 -3.85688,-10.6771 l 0.15435,-40.642 c 0.10278,-4.1331 1.43989,-7.6347 4.01114,-10.505 2.57125,-2.9849 5.70815,-4.4774 9.41077,-4.4775 l 33.61565,0 0.15435,-35.8201 8.3471,0 m -8.50138,98.8316 -0.15435,-55.416 -30.97671,0 c -2.26273,10e-5 -4.16546,1.0907 -5.70819,3.272 -1.54277,2.1814 -2.31413,4.5924 -2.31411,7.2329 l 0.15435,34.4061 c -2e-5,2.6406 0.71992,5.0516 2.15983,7.2329 1.43989,2.1814 3.29119,3.2721 5.55391,3.2721 l 31.28525,0 m -66.79865,-7.387 c -8e-5,4.1331 -1.33712,7.6921 -4.01116,10.6771 -2.5713,2.8702 -5.70823,4.3053 -9.41077,4.3053 l -31.47206,0 c -3.70262,0 -6.89097,-1.4351 -9.56505,-4.3053 -2.57125,-2.985 -3.85688,-6.544 -3.85686,-10.6771 l 0,-40.642 c -2e-5,-4.1331 1.28561,-7.6347 3.85686,-10.505 2.67408,-2.9849 5.86243,-4.4774 9.56505,-4.4775 l 31.47206,0 c 3.70254,10e-5 6.83947,1.4926 9.41077,4.4775 2.67404,2.8703 4.01108,6.3719 4.01116,10.505 l 0,40.642 m -8.19285,-3.118 0,-34.4061 c -5e-5,-2.6405 -0.77142,-4.9366 -2.31411,-6.8884 -1.5428,-1.9517 -3.49695,-2.9276 -5.86245,-2.9277 l -26.03992,0 c -2.26273,10e-5 -4.16544,0.976 -5.70817,2.9277 -1.54277,1.9518 -2.31412,4.2479 -2.31412,6.8884 l 0,34.4061 c 0,2.6406 0.77135,4.9368 2.31412,6.8885 1.54273,1.9517 3.44544,2.9276 5.70817,2.9276 l 26.03992,0 c 2.3655,0 4.31965,-0.9759 5.86245,-2.9276 1.54269,-1.9517 2.31406,-4.2479 2.31411,-6.8885 m -71.51363,-14.2573 -8.19284,0 0,-20.1488 c -5e-5,-2.6405 -0.77142,-4.9366 -2.31411,-6.8884 -1.54281,-1.9517 -3.49695,-2.9276 -5.86245,-2.9277 l -22.95443,0 c -2.2627,10e-5 -4.16544,0.976 -5.70817,2.9277 -1.54276,1.9518 -2.31411,4.2479 -2.31411,6.8884 l 0,34.4061 c 0,2.6406 0.77135,4.9368 2.31411,6.8885 1.54273,1.9517 3.44547,2.9276 5.70817,2.9276 l 38.86099,0 0.15435,8.2843 -41.49993,0 c -3.70261,0 -6.89095,-1.4351 -9.56505,-4.3053 -2.57124,-2.985 -3.85686,-6.544 -3.85686,-10.6771 l 0,-40.642 c 0,-4.1331 1.28562,-7.6347 3.85686,-10.505 2.6741,-2.9849 5.86244,-4.4774 9.56505,-4.4775 l 28.38657,0 c 3.70254,10e-5 6.83947,1.4926 9.41077,4.4775 2.67404,2.8703 4.01108,6.3719 4.01115,10.505 l 0,23.2667"
       style="font-style:normal;font-variant:normal;font-weight:normal;font-stretch:normal;font-size:87.35703278px;line-height:125%;font-family:Discognate;-inkscape-font-specification:Discognate;letter-spacing:0px;word-spacing:0px;display:none;fill:#ffffff;fill-opacity:1;stroke:none"
       id="path4870" />
    <path
       style="color:#000000;display:inline;overflow:visible;visibility:visible;opacity:0.753;fill:url(#linearGradient13686);fill-opacity:1;fill-rule:nonzero;stroke:none;stroke-width:3;marker:none;enable-background:accumulate"
       d="m 187.33333,382.86218 150.33334,0 0,45.55556 c -24.1364,-4.93079 -137.23023,-8.7494 -150.33334,0 z"
       id="rect4706"
       inkscape:connector-curvature="0"
       sodipodi:nodetypes="ccccc"
       clip-path="url(#clipPath8885)"
       transform="matrix(1.7660267,0,0,1.9713584,-116.8874,298.31176)" />
    <path
       sodipodi:nodetypes="csccccccccccccccccccc"
       inkscape:connector-curvature="0"
       d="m 211.2205,1130.3266 c -4.48907,-16.6401 -27.72686,-29.2291 -55.48417,-29.2291 -28.31354,0 -50.99511,12.589 -55.48417,29.2291 l -3.587707,3.1511 -9.344694,-20.2415 -5.840439,-27.475 10.012181,4.6568 c 2.737785,-3.0924 4.689877,-5.4999 11.680879,-9.7792 l 6.67479,-15.3674 11.2637,9.7792 c 7.5803,-2.0142 15.1172,-4.1254 23.77893,-3.7254 l 10.84653,-11.6419 10.84653,11.6419 c 8.66172,-0.4 16.19862,1.7112 23.77893,3.7254 l 11.2637,-9.7792 6.67479,15.3674 c 6.991,4.2793 8.94309,6.6868 11.68087,9.7792 l 10.01219,-4.6568 -5.84044,27.475 -9.3447,20.2415 z"
       style="color:#000000;display:inline;overflow:visible;visibility:visible;fill:url(#radialGradient4885-0-8-6);fill-opacity:1;fill-rule:nonzero;stroke:none;stroke-width:4.44910526;marker:none;enable-background:accumulate"
       id="path3799" />
    <path
       style="color:#000000;font-style:normal;font-variant:normal;font-weight:normal;font-stretch:normal;font-size:medium;line-height:normal;font-family:Sans;-inkscape-font-specification:Sans;text-indent:0;text-align:start;text-decoration:none;text-decoration-line:none;letter-spacing:normal;word-spacing:normal;text-transform:none;direction:ltr;block-progression:tb;writing-mode:lr-tb;baseline-shift:baseline;text-anchor:start;display:inline;overflow:visible;visibility:visible;fill:#ffffff;fill-opacity:1;fill-rule:nonzero;stroke:none;stroke-width:4.99953032;marker:none;enable-background:accumulate"
       d="m 87.267612,1111.6064 a 1.0429418,1.1642022 0 0 0 -0.925605,1.5571 l 12.9324,40.9796 a 1.0429418,1.1642022 0 0 0 0.03909,0.1165 c 4.720453,10.968 14.249083,19.0101 24.847933,24.3462 10.59886,5.3361 22.2939,7.9747 31.57488,7.9747 9.28097,0 20.97601,-2.6386 31.57487,-7.9747 10.59886,-5.3361 20.12749,-13.3782 24.84794,-24.3462 a 1.0429418,1.1642022 0 0 0 0.0391,-0.1165 l 12.9324,-40.9796 a 1.0429418,1.1642022 0 0 0 -1.87729,-0.975 l -6.28368,12.2677 -5.47541,-1.6299 a 1.0429418,1.1642022 0 0 0 -1.09509,0.4075 l -11.05511,15.9931 -14.69236,4.8751 -28.40695,-17.9141 a 1.0429418,1.1642022 0 0 0 -1.01686,0 l -28.40696,17.9141 -14.69235,-4.8751 -11.05512,-15.9931 a 1.0429418,1.1642022 0 0 0 -1.095083,-0.4075 l -5.475411,1.6299 -6.283645,-12.2677 a 1.0429418,1.1642022 0 0 0 -0.951679,-0.5821 z"
       id="path5427"
       inkscape:connector-curvature="0" />
    <path
       style="color:#000000;font-style:normal;font-variant:normal;font-weight:normal;font-stretch:normal;font-size:medium;line-height:normal;font-family:Sans;-inkscape-font-specification:Sans;text-indent:0;text-align:start;text-decoration:none;text-decoration-line:none;letter-spacing:normal;word-spacing:normal;text-transform:none;direction:ltr;block-progression:tb;writing-mode:lr-tb;baseline-shift:baseline;text-anchor:start;display:inline;overflow:visible;visibility:visible;fill:#ffffff;fill-opacity:1;stroke:none;stroke-width:4.44910526;marker:none;enable-background:accumulate"
       d="m 155.60596,1058.65 a 0.92811877,1.0360289 0 0 0 -0.50843,0.2911 l -10.5858,11.3654 c -8.47182,-0.3134 -15.86974,1.678 -23.17924,3.6236 l -10.91171,-9.4736 a 0.92811877,1.0360289 0 0 0 -1.40796,0.3638 l -6.55746,15.0909 c -6.421579,3.9664 -8.699834,6.4702 -11.185483,9.2844 l -9.438566,-4.3948 a 0.92811877,1.0360289 0 0 0 -1.251522,1.1933 l 5.840438,27.475 a 0.92811877,1.0360289 0 1 0 1.799064,-0.4657 l -5.423265,-25.5104 8.343484,3.8855 a 0.92811877,1.0360289 0 0 0 1.016863,-0.2329 c 2.752023,-3.1085 4.533056,-5.3649 11.459257,-9.6046 a 0.92811877,1.0360289 0 0 0 0.3911,-0.4511 l 6.17939,-14.2177 10.35113,8.9934 a 0.92811877,1.0360289 0 0 0 0.78221,0.1892 c 7.5876,-2.0163 15.02646,-4.0891 23.53123,-3.6964 a 0.92811877,1.0360289 0 0 0 0.67791,-0.291 l 10.20773,-10.958 10.20773,10.958 a 0.92811877,1.0360289 0 0 0 0.67791,0.291 c 8.50476,-0.3927 15.94362,1.6801 23.53123,3.6964 a 0.92811877,1.0360289 0 0 0 0.7822,-0.1892 l 10.35114,-8.9934 6.17939,14.2177 a 0.92811877,1.0360289 0 0 0 0.3911,0.4511 c 6.9262,4.2397 8.70723,6.4961 11.45925,9.6046 a 0.92811877,1.0360289 0 0 0 1.01687,0.2329 l 8.34348,-3.8855 -5.42327,25.5104 a 0.92811877,1.0360289 0 1 0 1.79907,0.4657 l 5.84044,-27.475 a 0.92811877,1.0360289 0 0 0 -1.25153,-1.1933 l -9.43856,4.3948 c -2.48565,-2.8142 -4.76391,-5.318 -11.18548,-9.2844 l -6.55746,-15.0909 a 0.92811877,1.0360289 0 0 0 -1.40796,-0.3638 l -10.91172,9.4736 c -7.3095,-1.9456 -14.70741,-3.937 -23.17924,-3.6236 l -10.58579,-11.3654 a 0.92811877,1.0360289 0 0 0 -0.76917,-0.2911 z"
       id="path5322"
       inkscape:connector-curvature="0" />
  </g>
</svg>
