<svg id="a" xmlns="http://www.w3.org/2000/svg" viewBox="0 0 290 201"><defs><style>.k{fill:#171921}.l{fill:#fff}.m{fill:#ffe953}.n{fill:#f3d400}</style></defs><rect id="b" class="k" y="0" width="290" height="201"/><g id="c"><g id="d"><path id="e" class="l" d="M142 77V38h19.5c5.5.0 10.5 5 10.5 10.5V77h-7V50c0-2.7-2-5-5-5h-11v37l-7-5z"/><path id="f" class="l" d="M185 77V38h7v39h-7z"/><path id="g" class="l" d="M185 29h7v-8l-7 5v3z"/><path id="h" class="l" d="M212 77h-7V38h38.5c6 0 10.5 4.5 10.5 10.5V77l-7 5V50c0-3-2-5-5-5h-9v32h-7V45h-14v32z"/></g><path id="i" class="m" d="M103.7 59.9c-3.9 1.7-9.3 2.4-9.3 2.4l-17.6-8.7-17.6 8.7s-5.5-.7-9.3-2.4c-5.9-2.7-12.3-9.4-14.2-12.1.0.0 4.9 11.6 8.2 19.7C51.1 77 63.9 82 76.8 82s25.7-5 32.9-14.4c3.3-8.1 8.2-19.7 8.2-19.7-1.8 2.6-8.3 9.3-14.2 12z"/><path id="j" class="n" d="M116.1 35.7c-1.6-1.5-3.9-2.8-6.7-4-1.8-2.9-4.7-7.9-4.7-7.9s-2.9 2.3-6.4 4.5c-4.4-.9-9.4-1.5-14.6-1.8-3.4-2.7-6.8-5.5-6.8-5.5s-3.4 2.8-6.8 5.5c-5.3.3-10.2.9-14.6 1.8-3.4-2.2-6.4-4.5-6.4-4.5s-2.9 5.1-4.7 7.9c-2.8 1.2-5.1 2.5-6.7 4-2.5-1-5.6-2.2-5.6-2.2 3.4 6.8 5.8 13.7 12 17.8C49 43.5 63 39.9 77 40.1c14-.2 27.9 3.4 32.9 11.2 6.2-4.1 8.6-10.9 12-17.8-.2-.1-3.3 1.1-5.8 2.2z"/></g></svg>