<?xml version="1.0" encoding="UTF-8" standalone="no"?>
<!-- Created with Inkscape (http://www.inkscape.org/) -->

<svg
   xmlns:dc="http://purl.org/dc/elements/1.1/"
   xmlns:cc="http://creativecommons.org/ns#"
   xmlns:rdf="http://www.w3.org/1999/02/22-rdf-syntax-ns#"
   xmlns:svg="http://www.w3.org/2000/svg"
   xmlns="http://www.w3.org/2000/svg"
   xmlns:xlink="http://www.w3.org/1999/xlink"
   xmlns:sodipodi="http://sodipodi.sourceforge.net/DTD/sodipodi-0.dtd"
   xmlns:inkscape="http://www.inkscape.org/namespaces/inkscape"
   width="512"
   height="256"
   viewBox="0 0 128 0"
   id="svg4886"
   version="1.1"
   inkscape:version="0.91 r13725"
   sodipodi:docname="logo.svg"
   inkscape:export-filename="/home/philip/Development/Nim/assets/Art/logo.png"
   inkscape:export-xdpi="90"
   inkscape:export-ydpi="90">
  <defs
     id="defs4888">
    <linearGradient
       inkscape:collect="always"
       xlink:href="#linearGradient5122"
       id="linearGradient13686"
       gradientUnits="userSpaceOnUse"
       gradientTransform="matrix(0.56658293,0,0,1,111.78894,324.86218)"
       x1="265.33334"
       y1="97.777779"
       x2="265.33334"
       y2="64.86187" />
    <linearGradient
       inkscape:collect="always"
       id="linearGradient5122">
      <stop
         style="stop-color:#ffffff;stop-opacity:1;"
         offset="0"
         id="stop5124" />
      <stop
         style="stop-color:#ffffff;stop-opacity:0;"
         offset="1"
         id="stop5126" />
    </linearGradient>
    <clipPath
       clipPathUnits="userSpaceOnUse"
       id="clipPath8885">
      <path
         inkscape:connector-curvature="0"
         d="m 313.68522,443.38203 -6.70605,0 0,-25.21477 c -4e-5,-1.37098 -0.44712,-2.62278 -1.34122,-3.75538 -0.89417,-1.13254 -1.99694,-1.69883 -3.3083,-1.69886 l -8.49434,0 -0.0894,30.66901 -6.70606,0 -0.0894,-30.66901 -11.89207,0 -0.0894,30.66901 -6.88489,0 -0.0894,-36.65975 37.82214,0 c 2.14589,4e-5 3.96398,0.77495 5.45426,2.32476 1.54979,1.49027 2.32471,3.30836 2.32476,5.45426 l 0.0894,28.88073 m -57.93558,-45.24351 -6.9743,0 0,-7.33194 6.88488,0 0.0894,7.33194 m 0,45.24351 -6.88488,0 -0.0894,-37.0174 6.9743,0 0,37.0174 m -18.71353,0 -6.70606,0 0,-25.21477 c -3e-5,-1.37098 -0.44709,-2.62278 -1.3412,-3.75538 -0.89417,-1.13254 -1.99696,-1.69883 -3.30833,-1.69886 l -9.85917,0 -0.0894,30.66901 -6.88488,0 -0.0894,-36.65975 20.41003,0 c 2.14592,4e-5 3.964,0.77495 5.45426,2.32476 1.54981,1.49027 2.32473,3.30836 2.32476,5.45426 l 0.0894,28.88073"
         style="color:#000000;font-style:normal;font-variant:normal;font-weight:bold;font-stretch:normal;font-size:159.73602295px;line-height:125%;font-family:Discognate;-inkscape-font-specification:'Discognate Bold';letter-spacing:0px;word-spacing:0px;display:inline;overflow:visible;visibility:visible;fill:#ffd201;fill-opacity:1;fill-rule:nonzero;stroke:none;stroke-width:3;marker:none;enable-background:accumulate"
         id="path8887"
         sodipodi:nodetypes="cccccccccccccccccccccccccccccccccccccccc" />
    </clipPath>
    <filter
       inkscape:collect="always"
       id="filter9638">
      <feGaussianBlur
         inkscape:collect="always"
         stdDeviation="1.4691668"
         id="feGaussianBlur9640" />
    </filter>
    <linearGradient
       inkscape:collect="always"
       xlink:href="#linearGradient5122"
       id="linearGradient13688"
       gradientUnits="userSpaceOnUse"
       gradientTransform="matrix(0.56658293,0,0,1,111.78894,324.86218)"
       x1="335.14758"
       y1="101.33333"
       x2="334.36316"
       y2="88.86187" />
    <clipPath
       clipPathUnits="userSpaceOnUse"
       id="clipPath5599">
      <path
         inkscape:connector-curvature="0"
         d="m 313.68522,443.38203 -6.70605,0 0,-25.21477 c -4e-5,-1.37098 -0.44712,-2.62278 -1.34122,-3.75538 -0.89417,-1.13254 -1.99694,-1.69883 -3.3083,-1.69886 l -8.49434,0 -0.0894,30.66901 -6.70606,0 -0.0894,-30.66901 -11.89207,0 -0.0894,30.66901 -6.88489,0 -0.0894,-36.65975 37.82214,0 c 2.14589,4e-5 3.96398,0.77495 5.45426,2.32476 1.54979,1.49027 2.32471,3.30836 2.32476,5.45426 l 0.0894,28.88073 m -57.93558,-45.24351 -6.9743,0 0,-7.33194 6.88488,0 0.0894,7.33194 m 0,45.24351 -6.88488,0 -0.0894,-37.0174 6.9743,0 0,37.0174 m -18.71353,0 -6.70606,0 0,-25.21477 c -3e-5,-1.37098 -0.44709,-2.62278 -1.3412,-3.75538 -0.89417,-1.13254 -1.99696,-1.69883 -3.30833,-1.69886 l -9.85917,0 -0.0894,30.66901 -6.88488,0 -0.0894,-36.65975 20.41003,0 c 2.14592,4e-5 3.964,0.77495 5.45426,2.32476 1.54981,1.49027 2.32473,3.30836 2.32476,5.45426 l 0.0894,28.88073"
         style="color:#000000;font-style:normal;font-variant:normal;font-weight:bold;font-stretch:normal;font-size:159.73602295px;line-height:125%;font-family:Discognate;-inkscape-font-specification:'Discognate Bold';letter-spacing:0px;word-spacing:0px;display:inline;overflow:visible;visibility:visible;fill:#ffd201;fill-opacity:1;fill-rule:nonzero;stroke:none;stroke-width:3;marker:none;enable-background:accumulate"
         id="path5601"
         sodipodi:nodetypes="cccccccccccccccccccccccccccccccccccccccc" />
    </clipPath>
    <filter
       inkscape:collect="always"
       id="filter9666"
       x="-0.070363633"
       width="1.1407273"
       y="-0.2322"
       height="1.4644001">
      <feGaussianBlur
         inkscape:collect="always"
         stdDeviation="4.4075002"
         id="feGaussianBlur9668" />
    </filter>
    <clipPath
       clipPathUnits="userSpaceOnUse"
       id="clipPath5612">
      <path
         inkscape:connector-curvature="0"
         d="m 313.68522,443.38203 -6.70605,0 0,-25.21477 c -4e-5,-1.37098 -0.44712,-2.62278 -1.34122,-3.75538 -0.89417,-1.13254 -1.99694,-1.69883 -3.3083,-1.69886 l -8.49434,0 -0.0894,30.66901 -6.70606,0 -0.0894,-30.66901 -11.89207,0 -0.0894,30.66901 -6.88489,0 -0.0894,-36.65975 37.82214,0 c 2.14589,4e-5 3.96398,0.77495 5.45426,2.32476 1.54979,1.49027 2.32471,3.30836 2.32476,5.45426 l 0.0894,28.88073 m -57.93558,-45.24351 -6.9743,0 0,-7.33194 6.88488,0 0.0894,7.33194 m 0,45.24351 -6.88488,0 -0.0894,-37.0174 6.9743,0 0,37.0174 m -18.71353,0 -6.70606,0 0,-25.21477 c -3e-5,-1.37098 -0.44709,-2.62278 -1.3412,-3.75538 -0.89417,-1.13254 -1.99696,-1.69883 -3.30833,-1.69886 l -9.85917,0 -0.0894,30.66901 -6.88488,0 -0.0894,-36.65975 20.41003,0 c 2.14592,4e-5 3.964,0.77495 5.45426,2.32476 1.54981,1.49027 2.32473,3.30836 2.32476,5.45426 l 0.0894,28.88073"
         style="color:#000000;font-style:normal;font-variant:normal;font-weight:bold;font-stretch:normal;font-size:159.73602295px;line-height:125%;font-family:Discognate;-inkscape-font-specification:'Discognate Bold';letter-spacing:0px;word-spacing:0px;display:inline;overflow:visible;visibility:visible;fill:#ffd201;fill-opacity:1;fill-rule:nonzero;stroke:none;stroke-width:3;marker:none;enable-background:accumulate"
         id="path5614"
         sodipodi:nodetypes="cccccccccccccccccccccccccccccccccccccccc" />
    </clipPath>
    <radialGradient
       inkscape:collect="always"
       xlink:href="#linearGradient4754-3-7-4"
       id="radialGradient4885-0-8-6"
       cx="554.54865"
       cy="499.36295"
       fx="554.54865"
       fy="499.36295"
       r="52.678249"
       gradientTransform="matrix(3.6881544,-1.2330789e-7,1.9660267e-7,5.8804105,-1404.882,-2416.469)"
       gradientUnits="userSpaceOnUse" />
    <linearGradient
       inkscape:collect="always"
       id="linearGradient4754-3-7-4">
      <stop
         style="stop-color:#ffe652;stop-opacity:1"
         offset="0"
         id="stop4756-8-5-6" />
      <stop
         id="stop4762-2-4-9"
         offset="0.52295953"
         style="stop-color:#ffd201;stop-opacity:1" />
      <stop
         style="stop-color:#8e5b00;stop-opacity:1"
         offset="1"
         id="stop4758-1-3-9" />
    </linearGradient>
    <filter
       inkscape:collect="always"
       id="filter5497">
      <feGaussianBlur
         inkscape:collect="always"
         stdDeviation="3.6007903"
         id="feGaussianBlur5499" />
    </filter>
    <filter
       inkscape:collect="always"
       id="filter5493"
       x="-0.071930707"
       width="1.1438614"
       y="-0.21662608"
       height="1.4332522">
      <feGaussianBlur
         inkscape:collect="always"
         stdDeviation="10.802371"
         id="feGaussianBlur5495" />
    </filter>
    <filter
       inkscape:collect="always"
       id="filter5445">
      <feGaussianBlur
         inkscape:collect="always"
         stdDeviation="3.7047023"
         id="feGaussianBlur5447" />
    </filter>
    <filter
       inkscape:collect="always"
       id="filter5475"
       x="-0.080111854"
       width="1.1602237"
       y="-0.16567342"
       height="1.3313468">
      <feGaussianBlur
         inkscape:collect="always"
         stdDeviation="11.114107"
         id="feGaussianBlur5477" />
    </filter>
    <filter
       inkscape:collect="always"
       id="filter5481"
       x="-0.24033555"
       width="1.480671"
       y="-0.49702027"
       height="1.9940405">
      <feGaussianBlur
         inkscape:collect="always"
         stdDeviation="33.342321"
         id="feGaussianBlur5483" />
    </filter>
    <linearGradient
       inkscape:collect="always"
       xlink:href="#linearGradient5122"
       id="linearGradient5778"
       gradientUnits="userSpaceOnUse"
       gradientTransform="matrix(0.56658293,0,0,1,111.78894,324.86218)"
       x1="335.14758"
       y1="101.33333"
       x2="334.36316"
       y2="88.86187" />
    <clipPath
       clipPathUnits="userSpaceOnUse"
       id="clipPath4186">
      <path
         sodipodi:nodetypes="cccccccccccccccccccccccccccccccccccccccc"
         id="path4188"
         style="color:#000000;font-style:normal;font-variant:normal;font-weight:bold;font-stretch:normal;font-size:159.73602295px;line-height:125%;font-family:Discognate;-inkscape-font-specification:'Discognate Bold';letter-spacing:0px;word-spacing:0px;display:inline;overflow:visible;visibility:visible;fill:#ffd201;fill-opacity:1;fill-rule:nonzero;stroke:none;stroke-width:3;marker:none;enable-background:accumulate"
         d="m 313.68522,443.38203 -6.70605,4 0,-29.21477 c -4e-5,-1.37098 -0.44712,-2.62278 -1.34122,-3.75538 -0.89417,-1.13254 -1.99694,-1.69883 -3.3083,-1.69886 l -8.49434,0 -0.0894,30.66901 -6.70606,0 -0.0894,-30.66901 -11.89207,0 -0.0894,30.66901 -6.88489,0 -0.0894,-36.65975 37.82214,0 c 2.14589,4e-5 3.96398,0.77495 5.45426,2.32476 1.54979,1.49027 2.32471,3.30836 2.32476,5.45426 l 0.0894,28.88073 m -57.93558,-45.24351 -6.9743,0 0,-3.33194 6.88488,-4 0.0894,7.33194 m 0,45.24351 -6.88488,0 -0.0894,-37.0174 6.9743,0 0,37.0174 m -18.71353,0 -6.70606,0 0,-25.21477 c -3e-5,-1.37098 -0.44709,-2.62278 -1.3412,-3.75538 -0.89417,-1.13254 -1.99696,-1.69883 -3.30833,-1.69886 l -9.85917,0 -0.0894,34.66901 -6.88488,-4 -0.0894,-36.65975 20.41003,0 c 2.14592,4e-5 3.964,0.77495 5.45426,2.32476 1.54981,1.49027 2.32473,3.30836 2.32476,5.45426 l 0.0894,28.88073"
         inkscape:connector-curvature="0" />
    </clipPath>
  </defs>
  <sodipodi:namedview
     id="base"
     pagecolor="#152534"
     bordercolor="#666666"
     borderopacity="1.0"
     inkscape:pageopacity="0"
     inkscape:pageshadow="2"
     inkscape:zoom="1"
     inkscape:cx="273.55539"
     inkscape:cy="136.65902"
     inkscape:document-units="px"
     inkscape:current-layer="layer1"
     showgrid="false"
     units="px"
     inkscape:snap-global="false" />
  <metadata
     id="metadata4891">
    <rdf:RDF>
      <cc:Work
         rdf:about="">
        <dc:format>image/svg+xml</dc:format>
        <dc:type
           rdf:resource="http://purl.org/dc/dcmitype/StillImage" />
        <dc:title />
      </cc:Work>
    </rdf:RDF>
  </metadata>
  <g
     inkscape:label="Layer 1"
     inkscape:groupmode="layer"
     id="layer1"
     transform="translate(0,-996.3622)">
    <g
       style="display:inline"
       id="g5196"
       transform="matrix(1.7660267,0,0,1.9713584,-56.842497,283.52657)"
       inkscape:export-filename="/home/philip/Clients/Nimrod/Art/cache/logo.png"
       inkscape:export-xdpi="90"
       inkscape:export-ydpi="90">
      <g
         transform="translate(-34,7.5)"
         id="g4830">
        <path
           inkscape:connector-curvature="0"
           d="m 313.68522,443.38203 -6.70605,4 0,-29.21477 c -4e-5,-1.37098 -0.44712,-2.62278 -1.34122,-3.75538 -0.89417,-1.13254 -1.99694,-1.69883 -3.3083,-1.69886 l -8.49434,0 -0.0894,30.66901 -6.70606,0 -0.0894,-30.66901 -11.89207,0 -0.0894,30.66901 -6.88489,0 -0.0894,-36.65975 37.82214,0 c 2.14589,4e-5 3.96398,0.77495 5.45426,2.32476 1.54979,1.49027 2.32471,3.30836 2.32476,5.45426 l 0.0894,28.88073 m -57.93558,-45.24351 -6.9743,0 0,-3.33194 6.88488,-4 0.0894,7.33194 m 0,45.24351 -6.88488,0 -0.0894,-37.0174 6.9743,0 0,37.0174 m -18.71353,0 -6.70606,0 0,-25.21477 c -3e-5,-1.37098 -0.44709,-2.62278 -1.3412,-3.75538 -0.89417,-1.13254 -1.99696,-1.69883 -3.30833,-1.69886 l -9.85917,0 -0.0894,34.66901 -6.88488,-4 -0.0894,-36.65975 20.41003,0 c 2.14592,4e-5 3.964,0.77495 5.45426,2.32476 1.54981,1.49027 2.32473,3.30836 2.32476,5.45426 l 0.0894,28.88073"
           style="color:#000000;font-style:normal;font-variant:normal;font-weight:bold;font-stretch:normal;font-size:159.73602295px;line-height:125%;font-family:Discognate;-inkscape-font-specification:'Discognate Bold';letter-spacing:0px;word-spacing:0px;display:inline;overflow:visible;visibility:visible;fill:#ffd201;fill-opacity:1;fill-rule:nonzero;stroke:none;stroke-width:3;marker:none;enable-background:accumulate"
           id="path4860"
           sodipodi:nodetypes="cccccccccccccccccccccccccccccccccccccccc" />
        <path
           style="color:#000000;display:inline;overflow:visible;visibility:visible;opacity:0.75313804;fill:url(#linearGradient13686);fill-opacity:1;fill-rule:nonzero;stroke:none;stroke-width:3;marker:none;enable-background:accumulate"
           d="m 187.33333,382.86218 150.33334,0 0,45.55556 c -24.1364,-4.93079 -137.23023,-8.7494 -150.33334,0 z"
           id="rect4706"
           inkscape:connector-curvature="0"
           sodipodi:nodetypes="ccccc"
           clip-path="url(#clipPath4186)" />
        <path
           inkscape:connector-curvature="0"
           d="m 616.0025,428.09455 -26.8094,0 0,6.10578 c 0,1.33948 0.43678,2.50424 1.31036,3.49428 0.87356,0.99005 1.95227,1.54301 3.23221,1.48507 l 22.09211,0 0,4.20235 -23.49904,0 c -2.09657,0 -3.90195,-0.72798 -5.41613,-2.18393 -1.45596,-1.51418 -2.18393,-3.31956 -2.18393,-5.41613 l 0,-20.61626 c 0,-2.09654 0.72797,-3.8728 2.18393,-5.32878 1.51418,-1.51416 3.31956,-2.27125 5.41613,-2.27128 l 16.0737,0 c 2.09654,3e-5 3.8728,0.75712 5.32878,2.27128 1.51415,1.45598 2.27125,3.23224 2.27128,5.32878 l 0,12.92884 m -4.63914,-3.85292 0,-7.49428 c -2e-5,-1.33945 -0.43681,-2.50421 -1.31035,-3.49429 -0.8736,-0.99001 -1.98012,-1.48504 -3.31957,-1.48507 l -12.99777,0 c -1.28125,3e-5 -2.35865,0.49506 -3.23221,1.48507 -0.87358,0.99008 -1.55021,2.17649 -1.31036,3.49429 l 0,7.49428 22.17026,0 m -38.19823,-34.84625 -0.0874,53.98665 -23.84847,0 c -2.09657,0 -3.90195,-0.72798 -5.41613,-2.18393 -1.45596,-1.51418 -2.18393,-3.31956 -2.18393,-5.41613 l 0.0874,-20.61626 c 0.0582,-2.09654 0.81533,-3.8728 2.27128,-5.32878 1.45595,-1.51416 3.2322,-2.27125 5.32878,-2.27128 l 19.03462,0 0.0874,-18.17027 4.72649,0 m -4.81385,50.13373 -0.0874,-28.11054 -17.54034,0 c -1.28125,3e-5 -2.35866,0.55329 -3.23222,1.65978 -0.87358,1.10655 -1.31036,2.32955 -1.31035,3.669 l 0.0874,17.45298 c -10e-6,1.33948 0.40765,2.56248 1.22299,3.66899 0.81533,1.10653 1.86361,1.65979 3.14486,1.65979 l 17.71505,0 m -37.82426,-3.74714 c -4e-5,2.09657 -0.75713,3.90195 -2.27129,5.41613 -1.45598,1.45595 -3.23224,2.18393 -5.32878,2.18393 l -17.82083,0 c -2.09658,0 -3.90196,-0.72798 -5.41614,-2.18393 -1.45595,-1.51418 -2.18393,-3.31956 -2.18392,-5.41613 l 0,-20.61626 c -10e-6,-2.09654 0.72797,-3.8728 2.18392,-5.32878 1.51418,-1.51416 3.31956,-2.27125 5.41614,-2.27128 l 17.82083,0 c 2.09654,3e-5 3.8728,0.75712 5.32878,2.27128 1.51416,1.45598 2.27125,3.23224 2.27129,5.32878 l 0,20.61626 m -4.63914,-1.58164 0,-17.45298 c -3e-5,-1.33945 -0.43681,-2.50421 -1.31035,-3.49429 -0.8736,-0.99001 -1.98012,-1.48504 -3.31957,-1.48507 l -14.74492,0 c -1.28125,3e-5 -2.35865,0.49506 -3.23221,1.48507 -0.87358,0.99008 -1.31035,2.15484 -1.31035,3.49429 l 0,17.45298 c 0,1.33948 0.43677,2.50424 1.31035,3.49428 0.87356,0.99005 1.95096,1.48507 3.23221,1.48507 l 14.74492,0 c 1.33945,0 2.44597,-0.49502 3.31957,-1.48507 0.87354,-0.99004 1.31032,-2.1548 1.31035,-3.49428 m -40.49408,-7.23221 -4.63914,0 0,-10.22077 c -3e-5,-1.33945 -0.43681,-2.50421 -1.31035,-3.49429 -0.8736,-0.99001 -1.98012,-1.48504 -3.31957,-1.48507 l -12.99778,0 c -1.28124,3e-5 -2.35865,0.49506 -3.23221,1.48507 -0.87358,0.99008 -1.31035,2.15484 -1.31035,3.49429 l 0,17.45298 c 0,1.33948 0.43677,2.50424 1.31035,3.49428 0.87356,0.99005 1.95097,1.48507 3.23221,1.48507 l 22.00476,0 0.0874,4.20235 -23.49904,0 c -2.09658,0 -3.90195,-0.72798 -5.41614,-2.18393 -1.45595,-1.51418 -2.18392,-3.31956 -2.18392,-5.41613 l 0,-20.61626 c 0,-2.09654 0.72797,-3.8728 2.18392,-5.32878 1.51419,-1.51416 3.31956,-2.27125 5.41614,-2.27128 l 16.07369,0 c 2.09654,3e-5 3.8728,0.75712 5.32878,2.27128 1.51416,1.45598 2.27125,3.23224 2.27129,5.32878 l 0,11.80241"
           style="font-style:normal;font-variant:normal;font-weight:normal;font-stretch:normal;font-size:87.35703278px;line-height:125%;font-family:Discognate;-inkscape-font-specification:Discognate;letter-spacing:0px;word-spacing:0px;display:none;fill:#ffffff;fill-opacity:1;stroke:none"
           id="path4870" />
        <g
           id="g9627"
           style="filter:url(#filter9638)">
          <path
             style="color:#000000;display:inline;overflow:visible;visibility:visible;fill:url(#linearGradient5778);fill-opacity:1;fill-rule:nonzero;stroke:none;stroke-width:3;marker:none;enable-background:accumulate"
             d="m 187.33333,382.86218 150.33334,0 0,45.55556 c -24.1364,-4.93079 -137.23023,-8.7494 -150.33334,0 z"
             id="path9601"
             inkscape:connector-curvature="0"
             sodipodi:nodetypes="ccccc"
             clip-path="url(#clipPath8885)" />
        </g>
        <g
           id="g9642"
           style="opacity:0.75;filter:url(#filter9666)">
          <path
             clip-path="url(#clipPath8885)"
             sodipodi:nodetypes="ccccc"
             inkscape:connector-curvature="0"
             id="path9644"
             d="m 187.33333,382.86218 150.33334,0 0,45.55556 c -24.1364,-4.93079 -137.23023,-8.7494 -150.33334,0 z"
             style="color:#000000;display:inline;overflow:visible;visibility:visible;fill:url(#linearGradient13688);fill-opacity:1;fill-rule:nonzero;stroke:none;stroke-width:3;marker:none;enable-background:accumulate" />
        </g>
      </g>
      <g
         transform="matrix(0.23622191,0,0,0.23622191,-30.810783,297.10192)"
         id="g4218">
        <path
           sodipodi:nodetypes="csccccccccccccccccccc"
           inkscape:connector-curvature="0"
           d="m 773,560.69992 c -10.76065,-35.73309 -66.4635,-62.76669 -133,-62.76669 -67.86983,0 -122.23935,27.0336 -133,62.76669 l -8.60002,6.7667 L 476,524 l -14,-59 24,10 c 6.56269,-6.64067 11.24201,-11.8105 28,-21 l 16,-33 27,21 c 18.1706,-4.32547 36.23715,-8.85903 57,-8 l 26,-25 26,25 c 20.76285,-0.85903 38.8294,3.67453 57,8 l 27,-21 16,33 c 16.75799,9.1895 21.43731,14.35933 28,21 l 24,-10 -14,59 -22.39998,43.46662 z"
           style="color:#000000;display:inline;overflow:visible;visibility:visible;fill:url(#radialGradient4885-0-8-6);fill-opacity:1;fill-rule:nonzero;stroke:none;stroke-width:4.44910526;marker:none;enable-background:accumulate"
           id="path3799" />
        <path
           style="color:#000000;font-style:normal;font-variant:normal;font-weight:normal;font-stretch:normal;font-size:medium;line-height:normal;font-family:Sans;-inkscape-font-specification:Sans;text-indent:0;text-align:start;text-decoration:none;text-decoration-line:none;letter-spacing:normal;word-spacing:normal;text-transform:none;direction:ltr;block-progression:tb;writing-mode:lr-tb;baseline-shift:baseline;text-anchor:start;display:inline;overflow:visible;visibility:visible;fill:#ffffff;fill-opacity:1;fill-rule:nonzero;stroke:none;stroke-width:4.99953032;marker:none;enable-background:accumulate"
           d="m 475.875,520.5 a 2.5000151,2.5000151 0 0 0 -2.21875,3.34375 l 31,88 a 2.5000151,2.5000151 0 0 0 0.0937,0.25 c 11.3153,23.55291 34.15619,40.82243 59.5625,52.28125 25.40631,11.45882 53.44026,17.125 75.6875,17.125 22.24724,0 50.28119,-5.66618 75.6875,-17.125 25.40631,-11.45882 48.2472,-28.72834 59.5625,-52.28125 a 2.5000151,2.5000151 0 0 0 0.0937,-0.25 l 31,-88 a 2.5000151,2.5000151 0 0 0 -4.5,-2.09375 l -15.0625,26.34375 -13.125,-3.5 a 2.5000151,2.5000151 0 0 0 -2.625,0.875 l -26.5,34.34375 -35.21875,10.46875 -68.09375,-38.46875 a 2.5000151,2.5000151 0 0 0 -2.4375,0 l -68.09375,38.46875 -35.21875,-10.46875 -26.5,-34.34375 a 2.5000151,2.5000151 0 0 0 -2.625,-0.875 l -13.125,3.5 L 478.15625,521.75 A 2.5000151,2.5000151 0 0 0 475.875,520.5 Z"
           id="path5427"
           inkscape:connector-curvature="0" />
        <path
           style="color:#000000;font-style:normal;font-variant:normal;font-weight:normal;font-stretch:normal;font-size:medium;line-height:normal;font-family:Sans;-inkscape-font-specification:Sans;text-indent:0;text-align:start;text-decoration:none;text-decoration-line:none;letter-spacing:normal;word-spacing:normal;text-transform:none;direction:ltr;block-progression:tb;writing-mode:lr-tb;baseline-shift:baseline;text-anchor:start;display:inline;overflow:visible;visibility:visible;fill:#ffffff;fill-opacity:1;stroke:none;stroke-width:4.44910526;marker:none;enable-background:accumulate"
           d="m 639.6875,406.78125 a 2.2247751,2.2247751 0 0 0 -1.21875,0.625 l -25.375,24.40625 c -20.30765,-0.67312 -38.04104,3.60332 -55.5625,7.78125 L 531.375,419.25 A 2.2247751,2.2247751 0 0 0 528,420.03125 l -15.71875,32.40625 c -15.39304,8.51763 -20.8542,13.89421 -26.8125,19.9375 l -22.625,-9.4375 a 2.2247751,2.2247751 0 0 0 -3,2.5625 l 14,59 a 2.2247751,2.2247751 0 1 0 4.3125,-1 l -13,-54.78125 20,8.34375 a 2.2247751,2.2247751 0 0 0 2.4375,-0.5 c 6.59682,-6.67521 10.8661,-11.52068 27.46875,-20.625 A 2.2247751,2.2247751 0 0 0 516,454.96875 L 530.8125,424.4375 555.625,443.75 a 2.2247751,2.2247751 0 0 0 1.875,0.40625 c 18.1881,-4.32964 36.01964,-8.78096 56.40625,-7.9375 a 2.2247751,2.2247751 0 0 0 1.625,-0.625 L 640,412.0625 l 24.46875,23.53125 a 2.2247751,2.2247751 0 0 0 1.625,0.625 c 20.38661,-0.84346 38.21815,3.60786 56.40625,7.9375 A 2.2247751,2.2247751 0 0 0 724.375,443.75 L 749.1875,424.4375 764,454.96875 a 2.2247751,2.2247751 0 0 0 0.9375,0.96875 c 16.60265,9.10432 20.87193,13.94979 27.46875,20.625 a 2.2247751,2.2247751 0 0 0 2.4375,0.5 l 20,-8.34375 -13,54.78125 a 2.2247751,2.2247751 0 1 0 4.3125,1 l 14,-59 a 2.2247751,2.2247751 0 0 0 -3,-2.5625 l -22.625,9.4375 c -5.9583,-6.04329 -11.41946,-11.41987 -26.8125,-19.9375 L 752,420.03125 A 2.2247751,2.2247751 0 0 0 748.625,419.25 l -26.15625,20.34375 c -17.52146,-4.17793 -35.25485,-8.45437 -55.5625,-7.78125 l -25.375,-24.40625 a 2.2247751,2.2247751 0 0 0 -1.84375,-0.625 z"
           id="path5322"
           inkscape:connector-curvature="0" />
        <use
           x="0"
           y="0"
           xlink:href="#path5322"
           id="use5372"
           width="1280"
           height="720"
           style="filter:url(#filter5497)" />
        <use
           height="720"
           width="1280"
           id="use5394"
           xlink:href="#path5322"
           y="0"
           x="0"
           style="opacity:0.66600001;filter:url(#filter5493)" />
        <use
           x="0"
           y="0"
           xlink:href="#path5427"
           id="use5435"
           style="filter:url(#filter5445)"
           width="1280"
           height="720" />
        <use
           id="use5449"
           xlink:href="#path5427"
           y="0"
           x="0"
           style="opacity:0.66600001;filter:url(#filter5475)"
           width="1280"
           height="720" />
        <use
           style="opacity:0.33300003;filter:url(#filter5481)"
           x="0"
           y="0"
           xlink:href="#path5427"
           id="use5479"
           width="1280"
           height="720" />
      </g>
    </g>
  </g>
</svg>
