<?xml version="1.0" encoding="UTF-8" standalone="no"?>
<!-- Created with Inkscape (http://www.inkscape.org/) -->

<svg
   xmlns:dc="http://purl.org/dc/elements/1.1/"
   xmlns:cc="http://creativecommons.org/ns#"
   xmlns:rdf="http://www.w3.org/1999/02/22-rdf-syntax-ns#"
   xmlns:svg="http://www.w3.org/2000/svg"
   xmlns="http://www.w3.org/2000/svg"
   xmlns:sodipodi="http://sodipodi.sourceforge.net/DTD/sodipodi-0.dtd"
   xmlns:inkscape="http://www.inkscape.org/namespaces/inkscape"
   width="512"
   height="256"
   viewBox="0 0 128 0"
   id="svg4886"
   version="1.1"
   inkscape:version="0.91 r13725"
   sodipodi:docname="logo-monochrome.svg"
   inkscape:export-filename="/home/philip/Development/Nim/assets/Art/logo-monochrome-black.png"
   inkscape:export-xdpi="90"
   inkscape:export-ydpi="90">
  <defs
     id="defs4888">
    <clipPath
       clipPathUnits="userSpaceOnUse"
       id="clipPath8885">
      <path
         inkscape:connector-curvature="0"
         d="m 313.68522,443.38203 -6.70605,0 0,-25.21477 c -4e-5,-1.37098 -0.44712,-2.62278 -1.34122,-3.75538 -0.89417,-1.13254 -1.99694,-1.69883 -3.3083,-1.69886 l -8.49434,0 -0.0894,30.66901 -6.70606,0 -0.0894,-30.66901 -11.89207,0 -0.0894,30.66901 -6.88489,0 -0.0894,-36.65975 37.82214,0 c 2.14589,4e-5 3.96398,0.77495 5.45426,2.32476 1.54979,1.49027 2.32471,3.30836 2.32476,5.45426 l 0.0894,28.88073 m -57.93558,-45.24351 -6.9743,0 0,-7.33194 6.88488,0 0.0894,7.33194 m 0,45.24351 -6.88488,0 -0.0894,-37.0174 6.9743,0 0,37.0174 m -18.71353,0 -6.70606,0 0,-25.21477 c -3e-5,-1.37098 -0.44709,-2.62278 -1.3412,-3.75538 -0.89417,-1.13254 -1.99696,-1.69883 -3.30833,-1.69886 l -9.85917,0 -0.0894,30.66901 -6.88488,0 -0.0894,-36.65975 20.41003,0 c 2.14592,4e-5 3.964,0.77495 5.45426,2.32476 1.54981,1.49027 2.32473,3.30836 2.32476,5.45426 l 0.0894,28.88073"
         style="color:#000000;font-style:normal;font-variant:normal;font-weight:bold;font-stretch:normal;font-size:159.73602295px;line-height:125%;font-family:Discognate;-inkscape-font-specification:'Discognate Bold';letter-spacing:0px;word-spacing:0px;display:inline;overflow:visible;visibility:visible;fill:#ffd201;fill-opacity:1;fill-rule:nonzero;stroke:none;stroke-width:3;marker:none;enable-background:accumulate"
         id="path8887"
         sodipodi:nodetypes="cccccccccccccccccccccccccccccccccccccccc" />
    </clipPath>
    <clipPath
       clipPathUnits="userSpaceOnUse"
       id="clipPath5599">
      <path
         inkscape:connector-curvature="0"
         d="m 313.68522,443.38203 -6.70605,0 0,-25.21477 c -4e-5,-1.37098 -0.44712,-2.62278 -1.34122,-3.75538 -0.89417,-1.13254 -1.99694,-1.69883 -3.3083,-1.69886 l -8.49434,0 -0.0894,30.66901 -6.70606,0 -0.0894,-30.66901 -11.89207,0 -0.0894,30.66901 -6.88489,0 -0.0894,-36.65975 37.82214,0 c 2.14589,4e-5 3.96398,0.77495 5.45426,2.32476 1.54979,1.49027 2.32471,3.30836 2.32476,5.45426 l 0.0894,28.88073 m -57.93558,-45.24351 -6.9743,0 0,-7.33194 6.88488,0 0.0894,7.33194 m 0,45.24351 -6.88488,0 -0.0894,-37.0174 6.9743,0 0,37.0174 m -18.71353,0 -6.70606,0 0,-25.21477 c -3e-5,-1.37098 -0.44709,-2.62278 -1.3412,-3.75538 -0.89417,-1.13254 -1.99696,-1.69883 -3.30833,-1.69886 l -9.85917,0 -0.0894,30.66901 -6.88488,0 -0.0894,-36.65975 20.41003,0 c 2.14592,4e-5 3.964,0.77495 5.45426,2.32476 1.54981,1.49027 2.32473,3.30836 2.32476,5.45426 l 0.0894,28.88073"
         style="color:#000000;font-style:normal;font-variant:normal;font-weight:bold;font-stretch:normal;font-size:159.73602295px;line-height:125%;font-family:Discognate;-inkscape-font-specification:'Discognate Bold';letter-spacing:0px;word-spacing:0px;display:inline;overflow:visible;visibility:visible;fill:#ffd201;fill-opacity:1;fill-rule:nonzero;stroke:none;stroke-width:3;marker:none;enable-background:accumulate"
         id="path5601"
         sodipodi:nodetypes="cccccccccccccccccccccccccccccccccccccccc" />
    </clipPath>
    <clipPath
       clipPathUnits="userSpaceOnUse"
       id="clipPath5612">
      <path
         inkscape:connector-curvature="0"
         d="m 313.68522,443.38203 -6.70605,0 0,-25.21477 c -4e-5,-1.37098 -0.44712,-2.62278 -1.34122,-3.75538 -0.89417,-1.13254 -1.99694,-1.69883 -3.3083,-1.69886 l -8.49434,0 -0.0894,30.66901 -6.70606,0 -0.0894,-30.66901 -11.89207,0 -0.0894,30.66901 -6.88489,0 -0.0894,-36.65975 37.82214,0 c 2.14589,4e-5 3.96398,0.77495 5.45426,2.32476 1.54979,1.49027 2.32471,3.30836 2.32476,5.45426 l 0.0894,28.88073 m -57.93558,-45.24351 -6.9743,0 0,-7.33194 6.88488,0 0.0894,7.33194 m 0,45.24351 -6.88488,0 -0.0894,-37.0174 6.9743,0 0,37.0174 m -18.71353,0 -6.70606,0 0,-25.21477 c -3e-5,-1.37098 -0.44709,-2.62278 -1.3412,-3.75538 -0.89417,-1.13254 -1.99696,-1.69883 -3.30833,-1.69886 l -9.85917,0 -0.0894,30.66901 -6.88488,0 -0.0894,-36.65975 20.41003,0 c 2.14592,4e-5 3.964,0.77495 5.45426,2.32476 1.54981,1.49027 2.32473,3.30836 2.32476,5.45426 l 0.0894,28.88073"
         style="color:#000000;font-style:normal;font-variant:normal;font-weight:bold;font-stretch:normal;font-size:159.73602295px;line-height:125%;font-family:Discognate;-inkscape-font-specification:'Discognate Bold';letter-spacing:0px;word-spacing:0px;display:inline;overflow:visible;visibility:visible;fill:#ffd201;fill-opacity:1;fill-rule:nonzero;stroke:none;stroke-width:3;marker:none;enable-background:accumulate"
         id="path5614"
         sodipodi:nodetypes="cccccccccccccccccccccccccccccccccccccccc" />
    </clipPath>
  </defs>
  <sodipodi:namedview
     id="base"
     pagecolor="#ffffff"
     bordercolor="#666666"
     borderopacity="1.0"
     inkscape:pageopacity="0"
     inkscape:pageshadow="2"
     inkscape:zoom="1"
     inkscape:cx="266.05999"
     inkscape:cy="83.17185"
     inkscape:document-units="px"
     inkscape:current-layer="layer1"
     showgrid="false"
     units="px"
     inkscape:snap-global="false" />
  <metadata
     id="metadata4891">
    <rdf:RDF>
      <cc:Work
         rdf:about="">
        <dc:format>image/svg+xml</dc:format>
        <dc:type
           rdf:resource="http://purl.org/dc/dcmitype/StillImage" />
        <dc:title />
      </cc:Work>
    </rdf:RDF>
  </metadata>
  <g
     inkscape:label="Layer 1"
     inkscape:groupmode="layer"
     id="layer1"
     transform="translate(0,-996.3622)">
    <path
       inkscape:connector-curvature="0"
       d="m 970.98946,1142.2395 -47.34611,0 0,12.0367 c 0,2.6406 0.77136,4.9368 2.31413,6.8885 1.54273,1.9517 3.44776,3.0418 5.70817,2.9276 l 39.01525,0 0,8.2843 -41.49993,0 c -3.7026,0 -6.89095,-1.4351 -9.56503,-4.3053 -2.57126,-2.985 -3.85688,-6.544 -3.85688,-10.6771 l 0,-40.642 c 0,-4.1331 1.28562,-7.6347 3.85688,-10.505 2.67408,-2.9849 5.86243,-4.4774 9.56503,-4.4775 l 28.38658,0 c 3.70255,10e-5 6.83947,1.4926 9.41077,4.4775 2.67403,2.8703 4.01109,6.3719 4.01114,10.505 l 0,25.4873 m -8.19284,-7.5954 0,-14.774 c -4e-5,-2.6405 -0.77142,-4.9366 -2.31412,-6.8884 -1.5428,-1.9517 -3.49694,-2.9276 -5.86245,-2.9277 l -22.9544,0 c -2.26273,10e-5 -4.16544,0.976 -5.70817,2.9277 -1.54277,1.9518 -2.73772,4.2906 -2.31413,6.8884 l 0,14.774 39.15327,0 m -67.4591,-68.6945 -0.15435,106.427 -42.11703,0 c -3.7026,0 -6.89095,-1.4351 -9.56503,-4.3053 -2.57127,-2.985 -3.85688,-6.544 -3.85688,-10.6771 l 0.15435,-40.642 c 0.10278,-4.1331 1.43989,-7.6347 4.01114,-10.505 2.57125,-2.9849 5.70815,-4.4774 9.41077,-4.4775 l 33.61565,0 0.15435,-35.8201 8.3471,0 m -8.50138,98.8316 -0.15435,-55.416 -30.97671,0 c -2.26273,10e-5 -4.16546,1.0907 -5.70819,3.272 -1.54277,2.1814 -2.31413,4.5924 -2.31411,7.2329 l 0.15435,34.4061 c -2e-5,2.6406 0.71992,5.0516 2.15983,7.2329 1.43989,2.1814 3.29119,3.2721 5.55391,3.2721 l 31.28525,0 m -66.79865,-7.387 c -8e-5,4.1331 -1.33712,7.6921 -4.01116,10.6771 -2.5713,2.8702 -5.70823,4.3053 -9.41077,4.3053 l -31.47206,0 c -3.70262,0 -6.89097,-1.4351 -9.56505,-4.3053 -2.57125,-2.985 -3.85688,-6.544 -3.85686,-10.6771 l 0,-40.642 c -2e-5,-4.1331 1.28561,-7.6347 3.85686,-10.505 2.67408,-2.9849 5.86243,-4.4774 9.56505,-4.4775 l 31.47206,0 c 3.70254,10e-5 6.83947,1.4926 9.41077,4.4775 2.67404,2.8703 4.01108,6.3719 4.01116,10.505 l 0,40.642 m -8.19285,-3.118 0,-34.4061 c -5e-5,-2.6405 -0.77142,-4.9366 -2.31411,-6.8884 -1.5428,-1.9517 -3.49695,-2.9276 -5.86245,-2.9277 l -26.03992,0 c -2.26273,10e-5 -4.16544,0.976 -5.70817,2.9277 -1.54277,1.9518 -2.31412,4.2479 -2.31412,6.8884 l 0,34.4061 c 0,2.6406 0.77135,4.9368 2.31412,6.8885 1.54273,1.9517 3.44544,2.9276 5.70817,2.9276 l 26.03992,0 c 2.3655,0 4.31965,-0.9759 5.86245,-2.9276 1.54269,-1.9517 2.31406,-4.2479 2.31411,-6.8885 m -71.51363,-14.2573 -8.19284,0 0,-20.1488 c -5e-5,-2.6405 -0.77142,-4.9366 -2.31411,-6.8884 -1.54281,-1.9517 -3.49695,-2.9276 -5.86245,-2.9277 l -22.95443,0 c -2.2627,10e-5 -4.16544,0.976 -5.70817,2.9277 -1.54276,1.9518 -2.31411,4.2479 -2.31411,6.8884 l 0,34.4061 c 0,2.6406 0.77135,4.9368 2.31411,6.8885 1.54273,1.9517 3.44547,2.9276 5.70817,2.9276 l 38.86099,0 0.15435,8.2843 -41.49993,0 c -3.70261,0 -6.89095,-1.4351 -9.56505,-4.3053 -2.57124,-2.985 -3.85686,-6.544 -3.85686,-10.6771 l 0,-40.642 c 0,-4.1331 1.28562,-7.6347 3.85686,-10.505 2.6741,-2.9849 5.86244,-4.4774 9.56505,-4.4775 l 28.38657,0 c 3.70254,10e-5 6.83947,1.4926 9.41077,4.4775 2.67404,2.8703 4.01108,6.3719 4.01115,10.505 l 0,23.2667"
       style="font-style:normal;font-variant:normal;font-weight:normal;font-stretch:normal;font-size:87.35703278px;line-height:125%;font-family:Discognate;-inkscape-font-specification:Discognate;letter-spacing:0px;word-spacing:0px;display:none;fill:#ffffff;fill-opacity:1;stroke:none"
       id="path4870" />
    <path
       id="path3799"
       style="color:#000000;font-style:normal;font-variant:normal;font-weight:normal;font-stretch:normal;font-size:medium;line-height:normal;font-family:sans-serif;text-indent:0;text-align:start;text-decoration:none;text-decoration-line:none;text-decoration-style:solid;text-decoration-color:#000000;letter-spacing:normal;word-spacing:normal;text-transform:none;direction:ltr;block-progression:tb;writing-mode:lr-tb;baseline-shift:baseline;text-anchor:start;white-space:normal;clip-rule:nonzero;display:inline;overflow:visible;visibility:visible;opacity:1;isolation:auto;mix-blend-mode:normal;color-interpolation:sRGB;color-interpolation-filters:linearRGB;solid-color:#000000;solid-opacity:1;fill:#000000;fill-opacity:1;fill-rule:nonzero;stroke:none;stroke-width:6;stroke-linecap:butt;stroke-linejoin:miter;stroke-miterlimit:4;stroke-dasharray:none;stroke-dashoffset:0;stroke-opacity:1;marker:none;color-rendering:auto;image-rendering:auto;shape-rendering:auto;text-rendering:auto;enable-background:accumulate"
       d="m 122.32927,1038.2558 -15.71251,16.8638 c -10.28799,-0.1599 -19.305341,2.1098 -27.918226,4.4037 l -17.007397,-14.7653 -10.298664,23.7086 c -6.653154,4.2198 -10.051664,7.4156 -12.797738,10.4371 l -17.443223,-8.1145 11.91097,43.4469 1.098389,2.9198 15.339659,48.6138 a 1.3452399,1.5016478 0 0 0 0.05291,0.1486 c 6.088694,14.1471 18.378848,24.5221 32.04979,31.4048 13.670936,6.8828 28.75496,10.2862 40.72604,10.2862 11.97107,0 27.0551,-3.4034 40.72605,-10.2862 13.67096,-6.8827 25.96108,-17.2577 32.04976,-31.4048 a 1.3452399,1.5016478 0 0 0 0.0504,-0.1486 l 15.34218,-48.6112 1.09839,-2.9224 11.91097,-43.4469 -17.44321,8.1145 c -2.74609,-3.0215 -6.14458,-6.2173 -12.79776,-10.4371 l -10.29864,-23.7086 -17.0074,14.7653 c -8.6129,-2.2939 -17.63025,-4.5636 -27.91823,-4.4037 l -15.71251,-16.8638 z m 0,11.3518 12.37953,13.2889 1.78867,-0.083 c 10.44224,-0.4823 19.6895,2.0714 29.50031,4.6783 l 1.98265,0.5265 12.08983,-10.4977 6.99593,16.103 1.04298,0.6373 c 8.73972,5.3497 10.60143,7.8269 14.18836,11.8783 l 1.91462,2.1615 8.49991,-3.9552 -8.40922,27.4321 -5.1065,15.0701 -4.94779,-1.4714 a 1.3452399,1.5016478 0 0 0 -0.44339,-0.048 c -4.7335,-8.2681 -12.64124,-15.2925 -22.62278,-20.5948 -13.34701,-7.0901 -30.36672,-11.2535 -48.85311,-11.2535 -18.83364,0 -35.865144,4.1604 -49.132763,11.2586 -9.914752,5.3044 -17.699108,12.3362 -22.373374,20.5873 a 1.3452399,1.5016478 0 0 0 -0.413158,0.05 l -4.947789,1.4714 -5.106501,-15.0701 -8.409227,-27.4321 8.499919,3.9552 1.914623,-2.1615 c 3.586928,-4.0514 5.448627,-6.5286 14.188363,-11.8783 l 1.042974,-0.6372 6.995922,-16.1031 12.08984,10.4977 1.982643,-0.5265 c 9.810799,-2.6067 19.058068,-5.1606 29.500298,-4.6782 l 1.78867,0.08 12.37956,-13.2863 z m 0,51.6115 c 17.31639,0 33.18499,3.9545 45.22289,10.3491 10.24948,5.4446 17.59243,12.5966 21.10872,20.3706 l -10.08453,14.5914 -18.94973,6.288 -36.64235,-23.1063 a 1.3452399,1.5016478 0 0 0 -1.31,0 l -36.642375,23.1063 -18.949718,-6.288 -10.092081,-14.6016 c 3.483708,-7.7934 10.691062,-14.9268 20.856793,-20.3653 11.937924,-6.3868 27.795751,-10.3442 45.482381,-10.3442 z m 362.90319,85.4889 -15.27578,10.1712 0,-74.2862 c -1e-4,-3.4861 -1.01851,-6.6691 -3.05519,-9.549 -2.03684,-2.8798 -4.54885,-4.3197 -7.53601,-4.3199 l -19.34937,0 -0.20363,77.9839 -15.27582,0 -0.20364,-77.9839 -27.08909,0 -0.20365,77.9839 -15.68317,0 -0.20364,-93.2169 86.1555,0 c 4.88815,10e-5 9.02959,1.9706 12.42433,5.9114 3.53028,3.7894 5.29548,8.4123 5.29558,13.8689 l 0.20366,73.4366 m -131.97214,-115.0433 -15.88684,0 0,-8.4723 15.68314,-10.1711 0.20365,18.6434 m 0,115.0433 -15.68316,0 -0.20363,-94.1262 15.88684,0 0,94.1262 m -42.62778,0 -15.27581,0 0,-64.115 c -7e-5,-3.4861 -1.01843,-6.6691 -3.05513,-9.549 -2.03685,-2.8798 -4.54891,-4.3197 -7.53609,-4.3199 l -22.45832,0 -0.20364,88.1551 -15.68316,-10.1712 -0.20365,-93.2169 46.49225,0 c 4.88822,10e-5 9.02965,1.9706 12.42434,5.9114 3.53032,3.7894 5.29552,8.4123 5.2956,13.8689 l 0.20363,73.4366"
       inkscape:connector-curvature="0" />
  </g>
</svg>
