<?xml version="1.0" encoding="UTF-8" standalone="no"?>
<!-- Generator: Adobe Illustrator 16.0.0, SVG Export Plug-In . SVG Version: 6.00 Build 0)  -->

<svg
   version="1.1"
   id="svg2"
   inkscape:export-ydpi="90"
   inkscape:export-xdpi="90"
   inkscape:export-filename="/Users/jwecker/src/Nim/web/assets/images/logo-flat.png"
   sodipodi:docname="logo-crown.svg"
   inkscape:version="1.1.2 (0a00cf5339, 2022-02-04)"
   x="0px"
   y="0px"
   width="290px"
   height="201px"
   viewBox="0 0 290 201"
   enable-background="new 0 0 290 201"
   xml:space="preserve"
   xmlns:inkscape="http://www.inkscape.org/namespaces/inkscape"
   xmlns:sodipodi="http://sodipodi.sourceforge.net/DTD/sodipodi-0.dtd"
   xmlns="http://www.w3.org/2000/svg"
   xmlns:svg="http://www.w3.org/2000/svg"><defs
   id="defs23" />
<sodipodi:namedview
   guidetolerance="3"
   showguides="false"
   fit-margin-left="0"
   fit-margin-top="0"
   showgrid="false"
   inkscape:cy="65.435494"
   inkscape:cx="153.68855"
   inkscape:zoom="2.6514662"
   borderopacity="1.0"
   bordercolor="#666666"
   pagecolor="#222430"
   id="base"
   inkscape:snap-from-guide="true"
   inkscape:guide-bbox="true"
   inkscape:window-maximized="1"
   inkscape:window-y="0"
   inkscape:window-x="0"
   inkscape:window-height="1052"
   inkscape:window-width="1920"
   fit-margin-bottom="0"
   fit-margin-right="0"
   inkscape:current-layer="layer2"
   inkscape:document-units="px"
   inkscape:pageshadow="2"
   inkscape:pageopacity="0.41176471"
   inkscape:pagecheckerboard="0">
	<sodipodi:guide
   position="-122.36097,122"
   orientation="0,1"
   id="guide3914" />
	<sodipodi:guide
   position="141.38903,161.25"
   orientation="0,1"
   id="guide3918" />
	
		<inkscape:grid
   type="xygrid"
   color="#ffb400"
   originy="-30.000001"
   originx="-684.36097"
   spacingy="0.5"
   spacingx="0.5"
   empopacity="0.4627451"
   empcolor="#ff6700"
   opacity="0.2"
   enabled="true"
   visible="true"
   empspacing="7"
   id="grid3936"
   snapvisiblegridlinesonly="true">
		</inkscape:grid>
	<sodipodi:guide
   position="198.63903,117.25"
   orientation="0,1"
   id="guide4407" />
	<sodipodi:guide
   position="203.13903,173.5"
   orientation="0,1"
   id="guide4409" />
	<sodipodi:guide
   position="204.63903,178.5"
   orientation="0,1"
   id="guide4411" />
</sodipodi:namedview>
<g
   id="layer1"
   transform="translate(-632.83826,-573.61255)"
   inkscape:label="Layer 1"
   sodipodi:insensitive="true"
   inkscape:groupmode="layer"
   display="none">
</g>
<g
   id="layer2"
   transform="translate(-632.83826,-573.61255)"
   inkscape:label="Layer"
   inkscape:groupmode="layer">
	
	<path
   id="path4870"
   inkscape:connector-curvature="0"
   display="none"
   fill="#FFFFFF"
   d="M1209.229,729.236h-28.65v7.283   c0,1.598,0.467,2.987,1.4,4.168c0.934,1.182,2.086,1.841,3.453,1.771h23.609v5.014h-25.113c-2.24,0-4.168-0.869-5.787-2.605   c-1.557-1.807-2.334-3.96-2.334-6.461v-24.594c0-2.5,0.777-4.619,2.334-6.356c1.619-1.806,3.547-2.709,5.787-2.71h17.178   c2.24,0.001,4.139,0.904,5.695,2.71c1.617,1.737,2.428,3.856,2.428,6.356V729.236 M1204.27,724.639v-8.94   c0-1.598-0.467-2.986-1.4-4.168c-0.934-1.181-2.115-1.771-3.547-1.771h-13.891c-1.369,0-2.52,0.591-3.453,1.771   c-0.934,1.182-1.656,2.597-1.4,4.168v8.94H1204.27 M1163.45,683.071l-0.094,64.401h-25.484c-2.24,0-4.17-0.869-5.789-2.605   c-1.555-1.807-2.334-3.96-2.334-6.461l0.094-24.594c0.062-2.5,0.871-4.619,2.428-6.356c1.555-1.806,3.453-2.71,5.693-2.71h20.342   l0.094-21.675H1163.45 M1158.305,742.875l-0.094-33.533h-18.744c-1.369,0-2.52,0.66-3.453,1.979c-0.934,1.32-1.4,2.779-1.4,4.377   l0.092,20.82c0,1.598,0.436,3.057,1.309,4.377c0.871,1.32,1.99,1.979,3.359,1.979H1158.305 M1117.883,738.406   c0,2.501-0.809,4.654-2.426,6.461c-1.557,1.736-3.455,2.605-5.695,2.605h-19.045c-2.24,0-4.17-0.869-5.787-2.605   c-1.557-1.807-2.334-3.96-2.334-6.461v-24.594c0-2.5,0.777-4.619,2.334-6.356c1.617-1.806,3.547-2.71,5.787-2.71h19.045   c2.24,0,4.139,0.904,5.695,2.71c1.617,1.737,2.426,3.856,2.426,6.356V738.406 M1112.926,736.519v-20.82   c0-1.598-0.467-2.986-1.4-4.168c-0.934-1.181-2.115-1.771-3.547-1.771h-15.758c-1.369,0-2.52,0.591-3.453,1.771   c-0.934,1.182-1.4,2.57-1.4,4.168v20.82c0,1.598,0.467,2.987,1.4,4.168c0.934,1.182,2.084,1.771,3.453,1.771h15.758   c1.432,0,2.613-0.59,3.547-1.771C1112.459,739.506,1112.926,738.116,1112.926,736.519 M1069.653,727.892h-4.959v-12.193   c0-1.598-0.467-2.986-1.4-4.168c-0.932-1.181-2.115-1.771-3.547-1.771h-13.891c-1.369,0-2.52,0.591-3.453,1.771   c-0.934,1.182-1.4,2.57-1.4,4.168v20.82c0,1.598,0.467,2.987,1.4,4.168c0.934,1.182,2.084,1.771,3.453,1.771h23.516l0.094,5.014   h-25.113c-2.24,0-4.17-0.869-5.787-2.605c-1.557-1.807-2.334-3.96-2.334-6.461v-24.594c0-2.5,0.777-4.619,2.334-6.356   c1.617-1.806,3.547-2.709,5.787-2.71h17.178c2.24,0.001,4.139,0.904,5.695,2.71c1.617,1.737,2.428,3.856,2.428,6.356V727.892" />
	<g
   id="g4459"
   transform="matrix(2.6729609,0,0,3.1541462,-1117.8107,-1304.4234)">
			<path
   id="path3054"
   sodipodi:nodetypes="ccccccccccccccccc"
   inkscape:connector-curvature="0"
   fill="#f3d400"
   d="m 709.691,596.613 c 0,0 -3.41,2.695 -6.887,5.372 -3.577,-0.114 -10.591,0.687 -14.392,2.069 -3.501,-2.218 -6.578,-4.667 -6.578,-4.667 0,0 -2.629,4.523 -4.282,7.177 -2.452,1.304 -4.914,2.771 -7.108,4.711 -2.552,-1.013 -5.51,-2.249 -5.606,-2.29 3.379,6.816 5.651,13.642 11.832,17.745 9.839,-15.539 55.56,-14.107 65.602,-0.088 6.49,-3.385 9.014,-10.668 11.566,-17.392 -0.28,0.092 -3.752,1.255 -6.004,2.114 -1.344,-1.463 -4.512,-3.713 -6.313,-4.799 -1.708,-3.128 -4.194,-7.354 -4.194,-7.354 0,0 -2.945,2.19 -6.357,4.579 -4.61,-0.851 -10.187,-1.885 -14.877,-1.629 -3.193,-2.625 -6.402,-5.548 -6.402,-5.548 z" />
			<path
   id="path3051"
   sodipodi:nodetypes="cccccccccc"
   inkscape:connector-curvature="0"
   fill="#ffe953"
   d="m 668.332,623.471 c 0,0 4.79,11.598 8.117,19.657 14.096,18.597 50.092,19.89 65.785,0.36 3.713,-8.369 8.723,-20.13 8.723,-20.13 -4.026,5.964 -10.578,10.081 -14.613,12.299 -2.868,1.571 -9.483,2.521 -9.483,2.521 l -17.37,-9.001 -17.47,8.821 c 0,0 -6.528,-1.049 -9.483,-2.43 -5.964,-3.185 -9.976,-6.947 -14.206,-12.097 z" />
		</g>
</g>
</svg>
