<svg id="a" xmlns="http://www.w3.org/2000/svg" xmlns:xlink="http://www.w3.org/1999/xlink" viewBox="0 0 290 201"><defs><style>.w{fill:url(#m)}.x{fill:#fff}.y{fill:url(#q)}.z{fill:#ffe953}.aa{fill:url(#o)}.ab{fill:#dfad00}.ac{fill:url(#b)}.ad{fill:#f6d600}.ae{fill:#f3d400}.af{fill:url(#k)}</style><radialGradient id="b" cx="160.37" cy="-1661.39" fx="160.37" fy="-1661.39" r="640" gradientTransform="translate(-211.63 -134.6) rotate(-32.97) scale(.76 -.26) skewX(3.39)" gradientUnits="userSpaceOnUse"><stop offset="0" stop-color="#070808"/><stop offset="1" stop-color="#152534"/></radialGradient><radialGradient id="k" cx="830.84" cy="-689.64" fx="830.84" fy="-689.64" r="56" gradientTransform="translate(-632.84 -234.81) scale(1 -.54)" gradientUnits="userSpaceOnUse"><stop offset="0" stop-color="#3e4b4b"/><stop offset="1" stop-color="#1e3449"/></radialGradient><radialGradient id="m" cx="830.84" cy="-689.64" fx="830.84" fy="-689.64" r="56" gradientTransform="translate(-632.84 -234.81) scale(1 -.54)" gradientUnits="userSpaceOnUse"><stop offset="0" stop-color="#3e4b4b"/><stop offset="1" stop-color="#1e3449"/></radialGradient><radialGradient id="o" cx="830.84" cy="-689.64" fx="830.84" fy="-689.64" r="56" gradientTransform="translate(-632.84 -234.81) scale(1 -.54)" gradientUnits="userSpaceOnUse"><stop offset="0" stop-color="#3e4b4b"/><stop offset="1" stop-color="#1e3449"/></radialGradient><radialGradient id="q" cx="830.84" cy="-689.64" fx="830.84" fy="-689.64" r="56" gradientTransform="translate(-632.84 -234.81) scale(1 -.54)" gradientUnits="userSpaceOnUse"><stop offset="0" stop-color="#3e4b4b"/><stop offset="1" stop-color="#1e3449"/></radialGradient></defs><rect id="c" class="ac" y="0" width="290" height="201"/><g id="d"><path id="e" class="x" d="M142 76.15v-39h19.5c5.5.0 10.5 5 10.5 10.5s0 28.5.0 28.5h-7s0-18 0-27c0-2.72-2-5-5-5h-11v37l-7-5z"/><path id="f" class="x" d="M185 76.15v-39h7v39h-7z"/><path id="g" class="x" d="M185 28.15h7v-8l-7 5v3z"/><path id="h" class="x" d="M212 76.15h-7v-39h38.5c6 0 10.5 4.5 10.5 10.5v28.5l-7 5v-32c0-3-2-5-5-5h-9v32h-7v-32h-14v32z"/></g><rect id="i" class="x" x="22" y="103" width="250" height="75"/><g id="j"><path id="l" class="af" d="M142 166.3v-39h19.5c5.5.0 10.5 5 10.5 10.5s0 28.5.0 28.5h-7s0-18 0-27c0-2.72-2-5-5-5h-11v37l-7-5z"/><path id="n" class="w" d="M185 166.3v-39h7v39h-7z"/><path id="p" class="aa" d="M185 118.3h7v-8l-7 5v3z"/><path id="r" class="y" d="M212 166.3h-7v-39h38.5c6 0 10.5 4.5 10.5 10.5v28.5l-7 5v-32c0-3-2-5-5-5h-9v32h-7v-32h-14v32z"/></g><g><path id="s" class="z" d="M103.73 59.94c-3.89 1.68-9.34 2.38-9.34 2.38l-17.56-8.73-17.56 8.73s-5.45-.7-9.34-2.38c-5.9-2.7-12.33-9.43-14.2-12.06.0.0 4.89 11.62 8.22 19.68C51.12 77.05 63.9 81.97 76.83 82c12.93-.03 25.7-4.95 32.88-14.44 3.33-8.06 8.22-19.68 8.22-19.68-1.87 2.63-8.29 9.36-14.2 12.06z"/><path id="t" class="ae" d="M116.06 35.66c-1.61-1.46-3.92-2.76-6.73-3.97-1.76-2.86-4.67-7.93-4.67-7.93s-2.91 2.32-6.35 4.51c-4.41-.92-9.38-1.49-14.65-1.81-3.44-2.67-6.84-5.46-6.84-5.46s-3.4 2.79-6.84 5.46c-5.27.32-10.24.89-14.65 1.81-3.44-2.19-6.35-4.51-6.35-4.51s-2.91 5.08-4.67 7.93c-2.8 1.21-5.12 2.51-6.73 3.97-2.54-1.02-5.6-2.22-5.6-2.22 3.36 6.82 5.79 13.68 11.96 17.77 4.93-7.84 18.87-11.43 32.88-11.2 14.01-.22 27.95 3.36 32.88 11.2 6.16-4.09 8.59-10.95 11.96-17.77.0.0-3.06 1.21-5.6 2.22z"/></g><g><path id="u" class="ad" d="M103.73 150.09c-3.89 1.68-9.34 2.38-9.34 2.38l-17.56-8.73-17.56 8.73s-5.45-.7-9.34-2.38c-5.9-2.7-12.33-9.43-14.2-12.06.0.0 4.89 11.62 8.22 19.68 7.17 9.49 19.95 14.41 32.88 14.44 12.93-.03 25.7-4.95 32.88-14.44 3.33-8.06 8.22-19.68 8.22-19.68-1.87 2.63-8.29 9.36-14.2 12.06z"/><path id="v" class="ab" d="M116.06 125.81c-1.61-1.46-3.92-2.76-6.73-3.97-1.76-2.86-4.67-7.93-4.67-7.93s-2.91 2.32-6.35 4.51c-4.41-.92-9.38-1.49-14.65-1.81-3.44-2.67-6.84-5.46-6.84-5.46s-3.4 2.79-6.84 5.46c-5.27.32-10.24.89-14.65 1.81-3.44-2.19-6.35-4.51-6.35-4.51s-2.91 5.08-4.67 7.93c-2.8 1.21-5.12 2.51-6.73 3.97-2.54-1.02-5.6-2.22-5.6-2.22 3.36 6.82 5.79 13.68 11.96 17.77 4.93-7.84 18.87-11.43 32.88-11.2 14.01-.22 27.95 3.36 32.88 11.2 6.16-4.09 8.59-10.95 11.96-17.77.0.0-3.06 1.21-5.6 2.22z"/></g></svg>