<?xml version="1.0" encoding="UTF-8" standalone="no"?>
<!-- Created with Inkscape (http://www.inkscape.org/) -->

<svg
   xmlns:dc="http://purl.org/dc/elements/1.1/"
   xmlns:cc="http://creativecommons.org/ns#"
   xmlns:rdf="http://www.w3.org/1999/02/22-rdf-syntax-ns#"
   xmlns:svg="http://www.w3.org/2000/svg"
   xmlns="http://www.w3.org/2000/svg"
   xmlns:sodipodi="http://sodipodi.sourceforge.net/DTD/sodipodi-0.dtd"
   xmlns:inkscape="http://www.inkscape.org/namespaces/inkscape"
   width="16"
   height="16"
   id="svg2"
   version="1.1"
   inkscape:version="0.48.5 r10040"
   sodipodi:docname="design2-icons-symbols.svg"
   inkscape:export-filename="/home/philip/Development/Nim/Nim-fil/web/assets/images/docs-articles.png"
   inkscape:export-xdpi="90"
   inkscape:export-ydpi="90">
  <defs
     id="defs4" />
  <sodipodi:namedview
     id="base"
     pagecolor="#ffffff"
     bordercolor="#666666"
     borderopacity="1.0"
     inkscape:pageopacity="0.0"
     inkscape:pageshadow="2"
     inkscape:zoom="32"
     inkscape:cx="10.334383"
     inkscape:cy="7.4075465"
     inkscape:document-units="px"
     inkscape:current-layer="layer2"
     showgrid="false"
     inkscape:window-width="1874"
     inkscape:window-height="1055"
     inkscape:window-x="46"
     inkscape:window-y="0"
     inkscape:window-maximized="1" />
  <metadata
     id="metadata7">
    <rdf:RDF>
      <cc:Work
         rdf:about="">
        <dc:format>image/svg+xml</dc:format>
        <dc:type
           rdf:resource="http://purl.org/dc/dcmitype/StillImage" />
        <dc:title></dc:title>
      </cc:Work>
    </rdf:RDF>
  </metadata>
  <g
     inkscape:label="reply"
     inkscape:groupmode="layer"
     id="layer1"
     transform="translate(0,-1036.3622)"
     style="display:none">
    <path
       style="color:#000000;fill:#cedae9;fill-opacity:1;fill-rule:nonzero;stroke:none;stroke-width:1;marker:none;visibility:visible;display:inline;overflow:visible;enable-background:accumulate"
       d="m 0.36799184,1042.1361 5.73699226,-5.737 0,11.474 z"
       id="rect3750"
       inkscape:connector-curvature="0"
       sodipodi:nodetypes="cccc" />
    <path
       style="color:#000000;fill:#cedae9;fill-opacity:1;fill-rule:nonzero;stroke:none;stroke-width:1;marker:none;visibility:visible;display:inline;overflow:visible;enable-background:accumulate"
       d="m 5.3845479,1039.4434 0,5.2395 c 4.7112601,0 8.6460971,3.278 9.8123511,7.6212 0.242539,-0.8712 0.381063,-1.8137 0.381063,-2.7624 0,-5.6279 -4.565718,-10.0983 -10.1934141,-10.0983 z"
       id="path4391"
       inkscape:connector-curvature="0"
       sodipodi:nodetypes="cccsc" />
  </g>
  <g
     inkscape:groupmode="layer"
     id="layer8"
     inkscape:label="libraries"
     style="display:none">
    <path
       style="font-size:medium;font-style:normal;font-variant:normal;font-weight:normal;font-stretch:normal;text-indent:0;text-align:start;text-decoration:none;line-height:normal;letter-spacing:normal;word-spacing:normal;text-transform:none;direction:ltr;block-progression:tb;writing-mode:lr-tb;text-anchor:start;baseline-shift:baseline;color:#000000;fill:#0e65d1;fill-opacity:1;stroke:none;stroke-width:1.07780981;marker:none;visibility:visible;display:inline;overflow:visible;enable-background:accumulate;font-family:Sans;-inkscape-font-specification:Sans"
       d="m 2.4616865,1.2498238 c -0.5140054,0 -0.9375,0.4234946 -0.9375,0.9375 l 0,1.5625 0,8.9687502 0,1.625 c 0,0.803237 0.6655129,1.46875 1.46875,1.46875 l 10.0937495,0 c 0.803237,0 1.46875,-0.665513 1.46875,-1.46875 l 0,-10.5937502 c 0,-0.8032371 -0.665513,-1.46875 -1.46875,-1.46875 l -0.15625,0 0,-0.09375 c 0,-0.5140054 -0.423495,-0.9375 -0.9375,-0.9375 l -4.4374995,0 0,6.78125 -1.8125,-1.875 -1.8125,1.875 0,-6.78125 -1.46875,0 z m 10.4687495,2.125 0.15625,0 c 0.224774,0 0.40625,0.1502264 0.40625,0.375 l 0,10.5937502 c 0,0.224774 -0.181476,0.40625 -0.40625,0.40625 l -10.0937495,0 c -0.2247736,0 -0.40625,-0.181476 -0.40625,-0.40625 l 0,-0.6875 9.4062495,0 c 0.514005,0 0.9375,-0.423495 0.9375,-0.9375 l 0,-9.3437502 z"
       id="rect3912"
       inkscape:connector-curvature="0" />
  </g>
  <g
     inkscape:groupmode="layer"
     id="layer2"
     inkscape:label="articles">
    <path
       style="font-size:medium;font-style:normal;font-variant:normal;font-weight:normal;font-stretch:normal;text-indent:0;text-align:start;text-decoration:none;line-height:normal;letter-spacing:normal;word-spacing:normal;text-transform:none;direction:ltr;block-progression:tb;writing-mode:lr-tb;text-anchor:start;baseline-shift:baseline;color:#000000;fill:#0e65d1;fill-opacity:1;stroke:none;stroke-width:1.07780981;marker:none;visibility:visible;display:inline;overflow:visible;enable-background:accumulate;font-family:Sans;-inkscape-font-specification:Sans"
       d="M 3 2.28125 C 2.196763 2.28125 1.53125 2.9467629 1.53125 3.75 L 1.53125 6.71875 L 1.53125 14.34375 C 1.53125 15.146987 2.196763 15.8125 3 15.8125 L 13.09375 15.8125 C 13.896987 15.8125 14.5625 15.146987 14.5625 14.34375 L 14.5625 6.71875 L 14.5625 3.75 C 14.5625 2.9467629 13.896987 2.28125 13.09375 2.28125 L 11.15625 2.28125 L 4.9375 2.28125 L 3 2.28125 z M 4.625 4.90625 A 1.001098 1.001098 0 0 1 4.71875 4.90625 A 1.0001 1.0001 0 0 1 4.8125 4.90625 L 11.25 4.90625 A 1.0001 1.0001 0 1 1 11.25 6.90625 L 4.8125 6.90625 A 1.001098 1.001098 0 0 1 4.625 4.90625 z M 4.09375 7.90625 A 0.50606671 0.50606671 0 0 1 4.15625 7.90625 A 0.50004997 0.50004997 0 0 1 4.3125 7.90625 L 10.3125 7.90625 A 0.50004997 0.50004997 0 1 1 10.3125 8.90625 L 4.3125 8.90625 A 0.50606671 0.50606671 0 0 1 4.09375 7.90625 z M 4.09375 9.90625 A 0.50606671 0.50606671 0 0 1 4.15625 9.90625 A 0.50005 0.50005 0 0 1 4.3125 9.90625 L 11.21875 9.90625 A 0.50005 0.50005 0 1 1 11.21875 10.90625 L 4.3125 10.90625 A 0.50606671 0.50606671 0 0 1 4.09375 9.90625 z M 4.09375 11.90625 A 0.50606671 0.50606671 0 0 1 4.15625 11.90625 A 0.50005 0.50005 0 0 1 4.3125 11.90625 L 9.28125 11.90625 A 0.50005 0.50005 0 1 1 9.28125 12.90625 L 4.3125 12.90625 A 0.50606671 0.50606671 0 0 1 4.09375 11.90625 z "
       id="rect3912-4" />
  </g>
  <g
     inkscape:groupmode="layer"
     id="layer3"
     inkscape:label="tools"
     style="display:none">
    <path
       style="color:#000000;fill:#0e65d1;fill-opacity:1;fill-rule:nonzero;stroke:none;stroke-width:1;marker:none;visibility:visible;display:inline;overflow:visible;enable-background:accumulate"
       d="M 8.156873,0.6160786 C 7.164471,0.56958347 6.2930974,0.78037063 5.7158041,1.2465835 c 0.5784989,-0.0884 1.1982411,0.00682 1.7353972,0.3111019 0.7575457,0.429121 1.1610585,1.1637857 1.1301666,1.8990969 L 8.9439695,3.6627001 6.6312965,6.8642213 5.2511967,4.5402808 C 5.9617968,3.8171101 6.1347287,2.7506238 5.5958913,1.842077 5.0445722,0.91246899 3.9119747,0.42251337 2.8017255,0.54185858 L 3.8497246,2.3101561 c 0.067959,0.1145936 0.017371,0.2530267 -0.111962,0.311551 L 2.4913005,3.1856398 C 2.3619708,3.2441737 2.2041022,3.2001686 2.1361465,3.0855817 L 1.094889,1.3305093 C 0.36953853,2.0539334 0.18891985,3.1288769 0.73232318,4.0451299 1.2615911,4.9375669 2.3298052,5.4247099 3.3962987,5.3566784 L 5.0649263,8.1718171 0.73710247,14.163991 c -0.0925422,0.128073 -0.0511958,0.298245 0.0953122,0.381225 L 2.9485228,15.74369 c 0.1465125,0.08297 0.3393394,0.04639 0.4318902,-0.08171 l 3.0435242,-4.213051 2.4916125,4.202795 c 0.080603,0.135906 0.2693455,0.189779 0.4227475,0.120336 L 11.553957,14.76953 C 11.70736,14.7001 11.76634,14.5345 11.685735,14.398568 L 8.0708938,8.3056196 10.707053,4.6599821 11.10062,4.8845331 c 0.508463,-0.2099231 1.127592,-0.1922935 1.639828,0.097851 0.512234,0.2901406 0.793038,0.7816106 0.791216,1.2785162 l 0.326846,0.1849523 c 0.14651,0.082989 0.339339,0.04638 0.431887,-0.081714 L 15.68415,4.4370696 C 15.77669,4.3089667 15.73291,4.1387222 15.5864,4.0557256 L 15.25711,3.8706671 C 14.748327,4.0804224 14.129612,4.0608304 13.617379,3.7706709 13.105145,3.4805 12.826367,2.9911321 12.828509,2.4943811 L 10.311603,1.0688897 C 9.5720328,0.79861029 8.8359044,0.64748744 8.1568765,0.61604562 z"
       id="rect10960"
       inkscape:connector-curvature="0"
       inkscape:export-filename="/home/philip/Clients/Nim/Web2/images/docs-tool.png"
       inkscape:export-xdpi="90"
       inkscape:export-ydpi="90" />
  </g>
  <g
     inkscape:groupmode="layer"
     id="layer4"
     inkscape:label="tutorials"
     style="display:none">
    <path
       style="color:#000000;fill:#0e65d1;fill-opacity:1;fill-rule:nonzero;stroke:none;stroke-width:1;marker:none;visibility:visible;display:inline;overflow:visible;enable-background:accumulate"
       d="M 7.9807203,1.267693 0.26353543,5.3735989 3.8844171,7.2992938 7.9807203,9.4795064 9.4232537,8.7399668 5.6006778,6.2764241 7.8654717,5.0374417 11.709656,7.4733729 11.88974,7.4193361 12.155057,7.2602628 15.697902,5.3735863 7.9807176,1.2676804 z M 3.5770747,8.0388375 2.8663442,11.136276 C 2.7075543,11.448551 2.615416,11.781203 2.602222,12.125537 l 0,0.0096 c -8.979e-4,0.02564 0,0.05105 0,0.07684 0,1.909585 2.4080344,3.457606 5.3784983,3.457606 2.9704637,0 5.3784987,-1.548021 5.3784987,-3.457606 0,-0.375387 -0.09203,-0.737272 -0.264123,-1.0757 L 12.384365,8.0388378 11.751675,8.3767944 11.63462,12.39626 9.4249825,13.910772 9.5546425,9.5311373 7.9807203,10.334304 z"
       id="rect10911"
       inkscape:connector-curvature="0"
       sodipodi:nodetypes="cccccccccccccccccssscccccccc" />
  </g>
  <g
     inkscape:groupmode="layer"
     id="layer5"
     inkscape:label="nim"
     style="display:none">
    <path
       id="path11008"
       style="font-size:medium;font-style:normal;font-variant:normal;font-weight:normal;font-stretch:normal;text-indent:0;text-align:start;text-decoration:none;line-height:normal;letter-spacing:normal;word-spacing:normal;text-transform:none;direction:ltr;block-progression:tb;writing-mode:lr-tb;text-anchor:start;baseline-shift:baseline;color:#000000;fill:#cedae9;fill-opacity:1;fill-rule:nonzero;stroke:none;stroke-width:1;marker:none;visibility:visible;display:inline;overflow:visible;enable-background:accumulate;font-family:Sans;-inkscape-font-specification:Sans"
       d="M 5.3907418,6.4729711 2.7948857,7.685952 5.2280157,6.0865016 7.9866033,5.4633993 10.745183,6.0865016 13.17832,7.685952 10.582464,6.4729711 7.9866033,6.0736169 z M 7.9890256,2.4178091 6.8053732,3.5506297 4.5905632,3.7830034 3.3633401,2.9406494 2.6226495,4.4583392 1.5697072,5.1699829 0.31343797,4.6035721 1.0831754,7.7696619 2.303136,11.18991 4.3291427,13.063422 7.9890256,14.130888 11.641647,13.063422 13.674915,11.18991 14.894877,7.7696619 15.664614,4.6035721 14.401082,5.1699829 13.34814,4.4583392 12.614711,2.9406494 11.380227,3.7830034 9.1654166,3.5506297 7.9890256,2.4178091 z m 0,0.7261671 0.9367557,0.9004477 2.5125387,0.3776066 0.914971,-0.6245037 0.530101,1.0965128 1.270794,0.9658026 0.675335,-0.3122519 -0.428439,1.7355399 -0.06535,0.1815416 -1.096513,0.8496157 -0.493793,-0.1307102 -1.045682,1.2707931 -1.154605,0.2178501 C 9.7164886,9.0369948 7.9890256,7.7914472 7.9890256,7.7914472 c 0,0 -1.7347247,1.2455476 -2.5633701,1.8807733 L 4.2710496,9.4543704 3.2253689,8.1835773 2.7388364,8.3142875 1.6350627,7.4574101 1.5697079,7.2831302 1.1412693,5.5475903 1.8238668,5.8598422 3.0946595,4.8940396 3.6247615,3.7975268 4.539732,4.4220305 7.0450094,4.0444239 7.9890265,3.1439762 z"
       inkscape:connector-curvature="0" />
  </g>
  <g
     inkscape:groupmode="layer"
     id="layer6"
     inkscape:label="internals"
     style="display:none">
    <path
       style="color:#000000;fill:#0e65d1;fill-opacity:1;fill-rule:nonzero;stroke:none;stroke-width:1;marker:none;visibility:visible;display:inline;overflow:visible;enable-background:accumulate"
       d="M 4.1404285,0.61635041 C 3.7470206,0.73057146 3.3749155,0.91398979 3.0236705,1.1090378 3.3776464,1.7044458 3.3060077,2.4689918 2.7937497,2.9812497 2.2825554,3.4924439 1.5164782,3.5954624 0.92153775,3.2440163 0.72278935,3.6028312 0.54318705,3.9581912 0.4288504,4.3607743 1.100562,4.5312193 1.6113,5.1469593 1.6113,5.8716822 c 0,0.7247229 -0.510738,1.307617 -1.1824496,1.478062 C 0.54582413,7.7616126 0.71635383,8.1334303 0.92153775,8.499348 1.5169459,8.1453721 2.2814918,8.2170109 2.7937497,8.7292688 c 0.5122579,0.5122579 0.5838967,1.2768042 0.2299208,1.8722122 0.351245,0.195048 0.7233501,0.378466 1.116758,0.492688 0.1560662,-0.691844 0.7719047,-1.1824505 1.5109078,-1.1824505 0.7383732,0 1.3541876,0.4914955 1.5109079,1.1824505 C 7.5623703,10.98053 7.9220767,10.79854 8.2790022,10.601481 7.9275563,10.00654 7.9977287,9.240463 8.508923,8.7292688 9.0226178,8.215574 9.8179523,8.1419425 10.413981,8.499348 10.61261,8.1441051 10.79094,7.7811901 10.906669,7.38259 10.214825,7.2265238 9.6913726,6.6106853 9.6913726,5.8716822 9.6913726,5.132679 10.214825,4.4839947 10.906669,4.3279285 10.793712,3.938876 10.606044,3.5918934 10.413981,3.2440163 9.8182718,3.5996447 9.021874,3.4942007 8.508923,2.9812497 7.9977288,2.4700554 7.9275562,1.7039782 8.2790022,1.1090378 7.9220767,0.91197938 7.5623703,0.72998923 7.1622442,0.61635041 7.0055238,1.3073054 6.3897095,1.7988 5.6513363,1.7988 4.9123332,1.7988 4.2964946,1.3081939 4.1404285,0.61635041 z M 5.6513363,3.7695495 c 1.1512616,-1e-7 2.1021326,0.9508708 2.1021327,2.1021327 -2e-7,1.1512618 -0.950871,2.069287 -2.1021327,2.0692868 -1.1512617,0 -2.0692868,-0.918025 -2.0692868,-2.0692868 0,-1.1512618 0.918025,-2.1021326 2.0692868,-2.1021327 z"
       id="path9325"
       inkscape:connector-curvature="0" />
    <path
       style="color:#000000;fill:#0e65d1;fill-opacity:1;fill-rule:nonzero;stroke:none;stroke-width:1;marker:none;visibility:visible;display:inline;overflow:visible;enable-background:accumulate"
       d="M 11.945231,7.901988 C 11.749109,7.891961 11.546226,7.867618 11.353299,7.886405 11.447939,8.4632865 11.164495,9.0388934 10.605594,9.2883465 10.058066,9.5327257 9.4205288,9.374401 9.0509947,8.9394193 8.8932877,9.084787 8.7280475,9.2259075 8.5942237,9.397626 c 0.3459419,0.3569221 0.5028716,0.891333 0.3134572,1.386127 -0.1861684,0.486314 -0.6423525,0.790723 -1.1282669,0.834214 -0.012011,0.203576 -0.00395,0.403431 0.015095,0.603674 0.565537,-0.07702 1.145824,0.230856 1.3901986,0.778382 0.2494527,0.558904 0.076061,1.176637 -0.3796066,1.542855 0.1469831,0.160181 0.3265478,0.302179 0.5006247,0.437839 0.3565899,-0.323192 0.8517743,-0.447675 1.3319653,-0.26385 0.480194,0.183825 0.765664,0.607155 0.815282,1.085849 0.220166,0.01526 0.448653,0.02947 0.665023,0.0084 -0.09464,-0.576882 0.188803,-1.152489 0.747707,-1.401942 0.557559,-0.248852 1.187951,-0.104277 1.554598,0.348933 0.161952,-0.150166 0.301341,-0.322592 0.437839,-0.500625 -0.28739,-0.353946 -0.419629,-0.833162 -0.244917,-1.289549 0.176283,-0.460494 0.59996,-0.759042 1.055173,-0.827024 0.01727,-0.223671 0.02865,-0.445098 0.0084,-0.665023 -0.575549,0.09251 -1.141339,-0.220819 -1.390191,-0.778377 -0.249492,-0.558945 -0.0761,-1.1766796 0.379566,-1.5428964 C 14.53514,9.0118169 14.367855,8.894468 14.215179,8.7709587 13.86013,9.1577363 13.306754,9.3024578 12.786633,9.1033476 12.266514,8.9042375 11.951237,8.4269834 11.945231,7.901988 z m 0.301232,2.612409 c 0.736728,0.282031 1.084369,1.117912 0.802338,1.854642 -0.28203,0.736727 -1.087238,1.09611 -1.823965,0.81408 -0.736729,-0.282031 -1.126787,-1.098981 -0.844758,-1.835711 0.282033,-0.736727 1.129656,-1.115043 1.866385,-0.833011 z"
       id="path9376"
       inkscape:connector-curvature="0" />
  </g>
  <g
     inkscape:groupmode="layer"
     id="layer7"
     inkscape:label="examples"
     style="display:none">
    <path
       id="path9463"
       transform="matrix(0.7631579,0,0,0.7631579,1.0256553,6.4305913)"
       style="color:#000000;fill:#0e65d1;fill-opacity:1;fill-rule:nonzero;stroke:none;stroke-width:1.15151513;marker:none;visibility:visible;display:inline;overflow:visible;enable-background:accumulate"
       d="m 12.876086,4.2164302 c 0,2.0471826 -1.659569,3.706752 -3.7067516,3.706752 -2.0471826,0 -3.7067521,-1.6595694 -3.7067521,-3.706752 0,-2.0471826 1.6595695,-3.70675207 3.7067521,-3.70675207 2.0471826,0 3.7067516,1.65956947 3.7067516,3.70675207 z M 9.1797447,-3.8400851 c -5.0594439,0 -9.28382785,3.41821421 -10.3189654,8.025862 1.03513755,4.6076467 5.2595215,8.0668101 10.3189654,8.0668101 5.0594443,0 9.2428803,-3.4591621 10.2780173,-8.0668101 -1.035137,-4.60764779 -5.218573,-8.025862 -10.2780173,-8.025862 z m -0.6551724,1.7607758 c 0.212267,-0.021557 0.437218,0 0.6551724,0 3.4872693,0 6.3060343,2.81876479 6.3060343,6.3060345 0,3.4872691 -2.818765,6.3060348 -6.3060343,6.3060348 -3.4872697,0 -6.3060344,-2.8187657 -6.3060344,-6.3060348 0,-3.26931534 2.4668579,-5.9826812 5.650862,-6.3060345 z"
       inkscape:connector-curvature="0" />
  </g>
</svg>
